<svg width="24" height="24" viewBox="0 0 24 24" fill="none" xmlns="http://www.w3.org/2000/svg">
<path fill-rule="evenodd" clip-rule="evenodd" d="M12.3332 2.08331C6.86501 2.08331 2.41651 6.53181 2.41651 12C2.41651 17.4682 6.86501 21.9167 12.3332 21.9167C17.8014 21.9167 22.2499 17.4682 22.2499 12C22.2499 6.53181 17.8014 2.08331 12.3332 2.08331ZM12.3332 23.6667C5.90017 23.6667 0.666504 18.433 0.666504 12C0.666504 5.56698 5.90017 0.333313 12.3332 0.333313C18.7662 0.333313 23.9999 5.56698 23.9999 12C23.9999 18.433 18.7662 23.6667 12.3332 23.6667Z" fill="black"/>
<path fill-rule="evenodd" clip-rule="evenodd" d="M14.016 16.9241C13.7932 16.9241 13.5692 16.839 13.3988 16.6686L9.33064 12.6203C9.16614 12.4558 9.07397 12.233 9.07397 11.9996C9.07397 11.7675 9.16614 11.5446 9.33064 11.3801L13.3988 7.33062C13.7407 6.98995 14.2937 6.98995 14.6355 7.33295C14.9773 7.67595 14.975 8.23012 14.6332 8.57079L11.1892 11.9996L14.6332 15.4296C14.975 15.7703 14.9773 16.3233 14.6355 16.6663C14.4652 16.839 14.24 16.9241 14.016 16.9241Z" fill="black"/>
</svg>
