<svg width="14" height="14" viewBox="0 0 14 14" fill="none" xmlns="http://www.w3.org/2000/svg">
<g id="Iconly/Regular/Outline/Calendar">
<g id="Calendar">
<path id="Fill 1" fill-rule="evenodd" clip-rule="evenodd" d="M12.0554 5.77783H1.65808C1.41658 5.77783 1.22058 5.58183 1.22058 5.34033C1.22058 5.09883 1.41658 4.90283 1.65808 4.90283H12.0554C12.2969 4.90283 12.4929 5.09883 12.4929 5.34033C12.4929 5.58183 12.2969 5.77783 12.0554 5.77783Z" fill="black"/>
<path id="Fill 3" fill-rule="evenodd" clip-rule="evenodd" d="M9.4507 8.05566C9.2092 8.05566 9.01086 7.85966 9.01086 7.61816C9.01086 7.37666 9.20395 7.18066 9.44545 7.18066H9.4507C9.6922 7.18066 9.8882 7.37666 9.8882 7.61816C9.8882 7.85966 9.6922 8.05566 9.4507 8.05566Z" fill="black"/>
<path id="Fill 5" fill-rule="evenodd" clip-rule="evenodd" d="M6.86207 8.05566C6.62057 8.05566 6.42224 7.85966 6.42224 7.61816C6.42224 7.37666 6.61532 7.18066 6.85682 7.18066H6.86207C7.10357 7.18066 7.29957 7.37666 7.29957 7.61816C7.29957 7.85966 7.10357 8.05566 6.86207 8.05566Z" fill="black"/>
<path id="Fill 7" fill-rule="evenodd" clip-rule="evenodd" d="M4.26818 8.05566C4.02668 8.05566 3.82776 7.85966 3.82776 7.61816C3.82776 7.37666 4.02143 7.18066 4.26293 7.18066H4.26818C4.50968 7.18066 4.70568 7.37666 4.70568 7.61816C4.70568 7.85966 4.50968 8.05566 4.26818 8.05566Z" fill="black"/>
<path id="Fill 9" fill-rule="evenodd" clip-rule="evenodd" d="M9.4507 10.3232C9.2092 10.3232 9.01086 10.1272 9.01086 9.88574C9.01086 9.64424 9.20395 9.44824 9.44545 9.44824H9.4507C9.6922 9.44824 9.8882 9.64424 9.8882 9.88574C9.8882 10.1272 9.6922 10.3232 9.4507 10.3232Z" fill="black"/>
<path id="Fill 11" fill-rule="evenodd" clip-rule="evenodd" d="M6.86207 10.3232C6.62057 10.3232 6.42224 10.1272 6.42224 9.88574C6.42224 9.64424 6.61532 9.44824 6.85682 9.44824H6.86207C7.10357 9.44824 7.29957 9.64424 7.29957 9.88574C7.29957 10.1272 7.10357 10.3232 6.86207 10.3232Z" fill="black"/>
<path id="Fill 13" fill-rule="evenodd" clip-rule="evenodd" d="M4.26818 10.3232C4.02668 10.3232 3.82776 10.1272 3.82776 9.88574C3.82776 9.64424 4.02143 9.44824 4.26293 9.44824H4.26818C4.50968 9.44824 4.70568 9.64424 4.70568 9.88574C4.70568 10.1272 4.50968 10.3232 4.26818 10.3232Z" fill="black"/>
<path id="Fill 15" fill-rule="evenodd" clip-rule="evenodd" d="M9.21289 3.37825C8.97139 3.37825 8.77539 3.18225 8.77539 2.94075V1.021C8.77539 0.779496 8.97139 0.583496 9.21289 0.583496C9.45439 0.583496 9.65039 0.779496 9.65039 1.021V2.94075C9.65039 3.18225 9.45439 3.37825 9.21289 3.37825Z" fill="black"/>
<path id="Fill 17" fill-rule="evenodd" clip-rule="evenodd" d="M4.50061 3.37825C4.25911 3.37825 4.06311 3.18225 4.06311 2.94075V1.021C4.06311 0.779496 4.25911 0.583496 4.50061 0.583496C4.74211 0.583496 4.93811 0.779496 4.93811 1.021V2.94075C4.93811 3.18225 4.74211 3.37825 4.50061 3.37825Z" fill="black"/>
<g id="Group 21">
<mask id="mask0_681_456" style="mask-type:luminance" maskUnits="userSpaceOnUse" x="1" y="1" width="12" height="13">
<path id="Clip 20" fill-rule="evenodd" clip-rule="evenodd" d="M1.16663 1.50439H12.5416V13.1249H1.16663V1.50439Z" fill="white"/>
</mask>
<g mask="url(#mask0_681_456)">
<path id="Fill 19" fill-rule="evenodd" clip-rule="evenodd" d="M4.38721 2.37939C2.87463 2.37939 2.04163 3.18614 2.04163 4.65089V9.92948C2.04163 11.4263 2.87463 12.25 4.38721 12.25H9.32104C10.8336 12.25 11.6666 11.4415 11.6666 9.97381V4.65089C11.669 3.93048 11.4753 3.37048 11.0909 2.98548C10.6954 2.58881 10.0858 2.37939 9.32629 2.37939H4.38721ZM9.32104 13.125H4.38721C2.40096 13.125 1.16663 11.9006 1.16663 9.92948V4.65089C1.16663 2.70956 2.40096 1.50439 4.38721 1.50439H9.32629C10.3232 1.50439 11.1475 1.80306 11.7104 2.36714C12.257 2.91606 12.5445 3.70531 12.5416 4.65206V9.97381C12.5416 11.9175 11.3073 13.125 9.32104 13.125Z" fill="black"/>
</g>
</g>
</g>
</g>
</svg>
