<svg width="14" height="14" viewBox="0 0 14 14" fill="none" xmlns="http://www.w3.org/2000/svg">
<g id="Iconly/Regular/Outline/Call">
<path id="Stroke 5" fill-rule="evenodd" clip-rule="evenodd" d="M1.91838 2.38442L1.9607 2.34019C3.08503 1.21576 3.8172 0.917719 4.59841 1.36695C4.82313 1.49617 5.03381 1.67706 5.32028 1.96801L6.19899 2.87919C6.68434 3.4088 6.79467 3.91679 6.63664 4.51172L6.61486 4.59048L6.5907 4.66879L6.47323 5.01344C6.22181 5.78634 6.32677 6.22242 7.22131 7.11673C8.15155 8.04673 8.58578 8.12282 9.41831 7.83189L9.56668 7.78032L9.7461 7.72205L9.82463 7.70026C10.457 7.53155 10.9911 7.66618 11.5577 8.23231L12.2657 8.9162L12.4741 9.12117C12.7051 9.35681 12.8579 9.54351 12.9707 9.74085C13.4171 10.5218 13.1187 11.2536 11.962 12.406L11.8519 12.5175C11.6792 12.684 11.5179 12.8032 11.2808 12.9158C10.8829 13.1047 10.4128 13.1759 9.86657 13.1C8.52055 12.9128 6.81339 11.8507 4.65022 9.6881C4.47414 9.51206 4.30549 9.33942 4.1441 9.17012L3.83099 8.83594C0.896906 5.64816 0.638061 3.68993 1.84048 2.4618L1.91838 2.38442ZM4.61203 2.49704C4.42199 2.30968 4.28394 2.19547 4.16223 2.12548C3.893 1.97066 3.60233 2.0361 3.06438 2.49911L2.89535 2.65012C2.86587 2.67734 2.83571 2.70559 2.80485 2.7349L2.61102 2.92369L2.59356 2.94551L2.46216 3.07752C2.14462 3.40186 1.99421 3.79771 2.12382 4.47848C2.33651 5.59557 3.31004 7.11098 5.26886 9.06931C7.30987 11.1098 8.86497 12.0772 9.9871 12.2333C10.6413 12.3243 10.9749 12.1658 11.3152 11.8172L11.5747 11.5554C11.6964 11.428 11.8003 11.3126 11.8881 11.2072L12.0079 11.0563C12.3139 10.6486 12.3419 10.4041 12.211 10.1751C12.1612 10.088 12.0888 9.99244 11.9833 9.8757L11.8403 9.72461L11.7556 9.63988L10.8624 8.77737C10.5639 8.50211 10.3599 8.46306 10.0502 8.54569L9.96078 8.5714L9.59078 8.697C8.51738 9.04367 7.74301 8.87557 6.60267 7.73552C5.42163 6.55478 5.28312 5.7663 5.67884 4.63102L5.70422 4.55807L5.77442 4.34657L5.80893 4.21176C5.87012 3.91836 5.80026 3.71379 5.48486 3.39834L5.44157 3.35471L4.61203 2.49704Z" fill="black"/>
</g>
</svg>
