<svg width="24" height="25" viewBox="0 0 24 25" fill="none" xmlns="http://www.w3.org/2000/svg">
<path fill-rule="evenodd" clip-rule="evenodd" d="M6.10844 20.5137C6.68844 20.5137 7.23544 20.7337 7.81444 20.9667C11.3614 22.6067 15.5564 21.8607 18.2894 19.1287C21.8954 15.5207 21.8954 9.65168 18.2894 6.04568C16.5434 4.29968 14.2214 3.33868 11.7494 3.33868C9.27644 3.33868 6.95344 4.30068 5.20844 6.04668C2.47444 8.77868 1.73044 12.9737 3.35544 16.4867C3.58944 17.0657 3.81544 17.6297 3.81544 18.2157C3.81544 18.8007 3.61444 19.3897 3.43744 19.9097C3.29144 20.3377 3.07044 20.9837 3.21244 21.1257C3.35144 21.2697 4.00144 21.0427 4.43044 20.8957C4.94544 20.7197 5.52944 20.5177 6.10844 20.5137ZM11.7244 23.3327C10.1964 23.3327 8.65844 23.0097 7.21944 22.3437C6.79544 22.1737 6.39844 22.0137 6.11344 22.0137C5.78544 22.0157 5.34444 22.1677 4.91844 22.3147C4.04444 22.6147 2.95644 22.9887 2.15144 22.1867C1.34944 21.3837 1.71944 20.2987 2.01744 19.4257C2.16444 18.9957 2.31544 18.5517 2.31544 18.2157C2.31544 17.9397 2.18244 17.5877 1.97844 17.0807C0.105437 13.0357 0.971437 8.16068 4.14844 4.98568C6.17644 2.95668 8.87544 1.83868 11.7484 1.83868C14.6214 1.83868 17.3214 2.95568 19.3494 4.98468C23.5414 9.17668 23.5414 15.9967 19.3494 20.1887C17.2944 22.2447 14.5274 23.3327 11.7244 23.3327Z" fill="black"/>
<path fill-rule="evenodd" clip-rule="evenodd" d="M15.6964 14.0014C15.1444 14.0014 14.6924 13.5544 14.6924 13.0014C14.6924 12.4484 15.1354 12.0014 15.6874 12.0014H15.6964C16.2484 12.0014 16.6964 12.4484 16.6964 13.0014C16.6964 13.5544 16.2484 14.0014 15.6964 14.0014Z" fill="black"/>
<path fill-rule="evenodd" clip-rule="evenodd" d="M11.6876 14.0014C11.1356 14.0014 10.6836 13.5544 10.6836 13.0014C10.6836 12.4484 11.1256 12.0014 11.6786 12.0014H11.6876C12.2396 12.0014 12.6876 12.4484 12.6876 13.0014C12.6876 13.5544 12.2396 14.0014 11.6876 14.0014Z" fill="black"/>
<path fill-rule="evenodd" clip-rule="evenodd" d="M7.67832 14.0014C7.12632 14.0014 6.67432 13.5544 6.67432 13.0014C6.67432 12.4484 7.11732 12.0014 7.66932 12.0014H7.67832C8.23032 12.0014 8.67832 12.4484 8.67832 13.0014C8.67832 13.5544 8.23032 14.0014 7.67832 14.0014Z" fill="black"/>
</svg>
