<svg width="49" height="49" viewBox="0 0 49 49" fill="none" xmlns="http://www.w3.org/2000/svg">
<g id="Frame 55">
<g id="volunteer ico">
<circle id="Ellipse 9" cx="24.5" cy="24.5" r="24.5" fill="#4093F5"/>
<g id="Vector">
<path d="M19.5295 23.9318C19.3579 23.9318 19.1933 23.8719 19.0719 23.7654C18.9506 23.6588 18.8824 23.5143 18.8824 23.3636V17.6818C18.8824 17.0557 18.3014 16.5454 17.5883 16.5454C16.8753 16.5454 16.2942 17.0557 16.2942 17.6818V23.3636C16.2942 23.5143 16.226 23.6588 16.1047 23.7654C15.9833 23.8719 15.8187 23.9318 15.6471 23.9318C15.4755 23.9318 15.3109 23.8719 15.1896 23.7654C15.0683 23.6588 15.0001 23.5143 15.0001 23.3636V17.6818C15.0001 16.4284 16.1609 15.4091 17.5883 15.4091C19.0157 15.4091 20.1765 16.4284 20.1765 17.6818V23.3636C20.1765 23.5143 20.1084 23.6588 19.987 23.7654C19.8657 23.8719 19.7011 23.9318 19.5295 23.9318Z" fill="white"/>
<path d="M23.4118 24.5C23.2402 24.5 23.0756 24.4401 22.9543 24.3336C22.8329 24.227 22.7648 24.0825 22.7648 23.9318V15.4091C22.7648 14.7829 22.1837 14.2727 21.4706 14.2727C20.7576 14.2727 20.1765 14.7829 20.1765 15.4091V23.9318C20.1765 24.0825 20.1084 24.227 19.987 24.3336C19.8657 24.4401 19.7011 24.5 19.5295 24.5C19.3579 24.5 19.1933 24.4401 19.0719 24.3336C18.9506 24.227 18.8824 24.0825 18.8824 23.9318V15.4091C18.8824 14.1557 20.0432 13.1364 21.4706 13.1364C22.8981 13.1364 24.0589 14.1557 24.0589 15.4091V23.9318C24.0589 24.0825 23.9907 24.227 23.8694 24.3336C23.748 24.4401 23.5834 24.5 23.4118 24.5Z" fill="white"/>
<path d="M27.2942 24.5C27.1225 24.5 26.958 24.4401 26.8366 24.3336C26.7153 24.227 26.6471 24.0825 26.6471 23.9318V14.2727C26.6471 13.6466 26.066 13.1364 25.353 13.1364C24.6399 13.1364 24.0589 13.6466 24.0589 14.2727V23.9318C24.0589 24.0825 23.9907 24.227 23.8694 24.3336C23.748 24.4401 23.5834 24.5 23.4118 24.5C23.2402 24.5 23.0756 24.4401 22.9543 24.3336C22.8329 24.227 22.7648 24.0825 22.7648 23.9318V14.2727C22.7648 13.0193 23.9256 12 25.353 12C26.7804 12 27.9412 13.0193 27.9412 14.2727V23.9318C27.9412 24.0825 27.873 24.227 27.7517 24.3336C27.6303 24.4401 27.4658 24.5 27.2942 24.5Z" fill="white"/>
<path d="M31.1765 24.6931C31.0049 24.6931 30.8403 24.6333 30.719 24.5267C30.5976 24.4202 30.5294 24.2757 30.5294 24.125V15.4091C30.5294 14.7829 29.9484 14.2727 29.2353 14.2727C28.5223 14.2727 27.9412 14.7829 27.9412 15.4091L27.9412 23.9318C27.9412 24.0825 27.873 24.227 27.7517 24.3336C27.6303 24.4401 27.4658 24.5 27.2942 24.5C27.1225 24.5 26.958 24.4401 26.8366 24.3336C26.7153 24.227 26.6471 24.0825 26.6471 23.9318L26.6471 15.4091C26.6471 14.1557 27.8079 13.1364 29.2353 13.1364C30.6627 13.1364 31.8235 14.1557 31.8235 15.4091V24.125C31.8235 24.2757 31.7554 24.4202 31.634 24.5267C31.5127 24.6333 31.3481 24.6931 31.1765 24.6931Z" fill="white"/>
<path d="M23.4118 36.9999C22.3062 37.0041 21.2108 36.8144 20.1897 36.4421C19.1686 36.0698 18.2424 35.5224 17.4654 34.8318C16.6799 34.1496 16.0573 33.3368 15.634 32.4408C15.2106 31.5448 14.9952 30.5836 15.0001 29.6136V23.0454C15.0001 22.8947 15.0683 22.7502 15.1896 22.6437C15.3109 22.5371 15.4755 22.4772 15.6471 22.4772C15.8187 22.4772 15.9833 22.5371 16.1047 22.6437C16.226 22.7502 16.2942 22.8947 16.2942 23.0454V29.6136C16.2942 31.2897 17.0344 32.8579 18.3803 34.0284C19.0375 34.6131 19.8212 35.0766 20.6852 35.3918C21.5492 35.7069 22.4762 35.8673 23.4118 35.8636C24.6479 35.8603 25.8618 35.5755 26.9352 35.0372C28.0085 34.4988 28.9044 33.7252 29.5356 32.792C31.3279 30.1329 33.1578 27.9943 35.1313 26.2579C35.2814 26.1261 35.3837 26.0068 35.4445 25.8943C35.6257 25.6181 35.7059 25.3454 35.7059 25.0568C35.7059 24.6 35.504 24.175 35.1378 23.8613C34.9694 23.705 34.7666 23.5802 34.5417 23.4947C34.3168 23.4091 34.0745 23.3645 33.8294 23.3636C33.5656 23.3483 33.3011 23.384 33.0547 23.4682C32.8083 23.5524 32.5859 23.6831 32.4033 23.8511L31.6346 24.5261C31.5126 24.6296 31.3491 24.6869 31.1795 24.6856C31.0098 24.6843 30.8475 24.6245 30.7276 24.5192C30.6076 24.4138 30.5395 24.2713 30.5381 24.1224C30.5366 23.9734 30.6018 23.8299 30.7197 23.7227L31.4832 23.0522C31.7912 22.7745 32.1628 22.5573 32.5735 22.4151C32.9843 22.2729 33.4247 22.2089 33.8657 22.2272C34.7159 22.2613 35.4587 22.5216 36.0527 23.0568C36.6596 23.5772 37 24.2909 37 25.0568C37 25.5466 36.8576 26.0193 36.5885 26.4238C36.4506 26.6611 36.2681 26.8762 36.0488 27.0602C34.153 28.7295 32.3865 30.7943 30.6511 33.3704C29.9045 34.4731 28.8452 35.3871 27.5764 36.0233C26.3076 36.6594 24.8728 36.9959 23.4118 36.9999Z" fill="white"/>
<path d="M22.7648 23.9318C22.7648 24.0825 22.8329 24.227 22.9543 24.3336C23.0756 24.4401 23.2402 24.5 23.4118 24.5C23.5834 24.5 23.748 24.4401 23.8694 24.3336C23.9907 24.227 24.0589 24.0825 24.0589 23.9318M22.7648 23.9318V15.4091C22.7648 14.7829 22.1837 14.2727 21.4706 14.2727C20.7576 14.2727 20.1765 14.7829 20.1765 15.4091V23.9318C20.1765 24.0825 20.1084 24.227 19.987 24.3336C19.8657 24.4401 19.7011 24.5 19.5295 24.5C19.3579 24.5 19.1933 24.4401 19.0719 24.3336C18.9506 24.227 18.8824 24.0825 18.8824 23.9318V15.4091C18.8824 14.1557 20.0432 13.1364 21.4706 13.1364C22.8981 13.1364 24.0589 14.1557 24.0589 15.4091V23.9318M22.7648 23.9318V14.2727C22.7648 13.0193 23.9256 12 25.353 12C26.7804 12 27.9412 13.0193 27.9412 14.2727V23.9318M24.0589 23.9318V14.2727C24.0589 13.6466 24.6399 13.1364 25.353 13.1364C26.066 13.1364 26.6471 13.6466 26.6471 14.2727V23.9318M26.6471 23.9318C26.6471 24.0825 26.7153 24.227 26.8366 24.3336C26.958 24.4401 27.1225 24.5 27.2942 24.5C27.4658 24.5 27.6303 24.4401 27.7517 24.3336C27.873 24.227 27.9412 24.0825 27.9412 23.9318M26.6471 23.9318L26.6471 15.4091C26.6471 14.1557 27.8079 13.1364 29.2353 13.1364C30.6627 13.1364 31.8235 14.1557 31.8235 15.4091V24.125C31.8235 24.2757 31.7554 24.4202 31.634 24.5267C31.5127 24.6333 31.3481 24.6931 31.1765 24.6931C31.0049 24.6931 30.8403 24.6333 30.719 24.5267C30.5976 24.4202 30.5294 24.2757 30.5294 24.125V15.4091C30.5294 14.7829 29.9484 14.2727 29.2353 14.2727C28.5223 14.2727 27.9412 14.7829 27.9412 15.4091L27.9412 23.9318M19.5295 23.9318C19.3579 23.9318 19.1933 23.8719 19.0719 23.7654C18.9506 23.6588 18.8824 23.5143 18.8824 23.3636V17.6818C18.8824 17.0557 18.3014 16.5454 17.5883 16.5454C16.8753 16.5454 16.2942 17.0557 16.2942 17.6818V23.3636C16.2942 23.5143 16.226 23.6588 16.1047 23.7654C15.9833 23.8719 15.8187 23.9318 15.6471 23.9318C15.4755 23.9318 15.3109 23.8719 15.1896 23.7654C15.0683 23.6588 15.0001 23.5143 15.0001 23.3636V17.6818C15.0001 16.4284 16.1609 15.4091 17.5883 15.4091C19.0157 15.4091 20.1765 16.4284 20.1765 17.6818V23.3636C20.1765 23.5143 20.1084 23.6588 19.987 23.7654C19.8657 23.8719 19.7011 23.9318 19.5295 23.9318ZM23.4118 36.9999C22.3062 37.0041 21.2108 36.8145 20.1897 36.4421C19.1686 36.0698 18.2424 35.5224 17.4654 34.8318C16.6799 34.1496 16.0573 33.3368 15.634 32.4408C15.2106 31.5448 14.9952 30.5836 15.0001 29.6136L15.0001 23.0454C15.0001 22.8947 15.0683 22.7502 15.1896 22.6437C15.3109 22.5371 15.4755 22.4772 15.6471 22.4772C15.8187 22.4772 15.9833 22.5371 16.1047 22.6437C16.226 22.7502 16.2942 22.8947 16.2942 23.0454V29.6136C16.2942 31.2897 17.0344 32.8579 18.3803 34.0284C19.0375 34.6131 19.8212 35.0766 20.6852 35.3918C21.5492 35.7069 22.4762 35.8673 23.4118 35.8636C24.6479 35.8603 25.8618 35.5755 26.9352 35.0372C28.0085 34.4988 28.9044 33.7252 29.5356 32.792C31.3279 30.1329 33.1578 27.9943 35.1313 26.2579C35.2814 26.1261 35.3837 26.0068 35.4445 25.8943C35.6257 25.6181 35.7059 25.3454 35.7059 25.0568C35.7059 24.6 35.504 24.175 35.1378 23.8613C34.9694 23.705 34.7666 23.5802 34.5417 23.4947C34.3168 23.4091 34.0745 23.3645 33.8294 23.3636C33.5656 23.3483 33.3011 23.384 33.0547 23.4682C32.8083 23.5524 32.5859 23.6831 32.4033 23.8511L31.6346 24.5261C31.5126 24.6296 31.3491 24.6869 31.1795 24.6856C31.0098 24.6843 30.8475 24.6245 30.7276 24.5192C30.6076 24.4138 30.5395 24.2713 30.5381 24.1224C30.5366 23.9734 30.6018 23.8299 30.7197 23.7227L31.4832 23.0522C31.7912 22.7745 32.1628 22.5573 32.5735 22.4151C32.9843 22.2729 33.4247 22.2089 33.8657 22.2272C34.7159 22.2613 35.4587 22.5216 36.0527 23.0568C36.6596 23.5772 37 24.2909 37 25.0568C37 25.5466 36.8576 26.0193 36.5885 26.4238C36.4506 26.6611 36.2681 26.8762 36.0488 27.0602C34.153 28.7295 32.3865 30.7943 30.6511 33.3704C29.9045 34.4731 28.8452 35.3871 27.5764 36.0233C26.3076 36.6594 24.8728 36.9959 23.4118 36.9999Z" stroke="white" stroke-width="0.3" stroke-linejoin="round"/>
</g>
</g>
</g>
</svg>
