<svg width="130" height="129" viewBox="0 0 130 129" fill="none" xmlns="http://www.w3.org/2000/svg">
<circle cx="65" cy="64.5" r="64.5" fill="white"/>
<path fill-rule="evenodd" clip-rule="evenodd" d="M64.2036 65.6499H64.289C72.097 65.6499 78.4463 59.3006 78.4463 51.4926C78.4463 43.6846 72.097 37.3326 64.289 37.3326C56.4783 37.3326 50.1263 43.6846 50.1263 51.4846C50.0996 59.2712 56.4116 65.6259 64.2036 65.6499ZM53.9343 51.4926C53.9343 45.7832 58.5796 41.1406 64.289 41.1406C69.9956 41.1406 74.6383 45.7832 74.6383 51.4926C74.6383 57.1992 69.9956 61.8446 64.289 61.8446H64.2116C58.5263 61.8232 53.9156 57.1832 53.9343 51.4926Z" fill="#8B8B8B"/>
<path fill-rule="evenodd" clip-rule="evenodd" d="M43.1663 80.4615C43.1663 90.3201 59.0649 90.3201 64.2889 90.3201C73.3529 90.3201 85.4063 89.3041 85.4063 80.5148C85.4063 70.6561 69.5129 70.6561 64.2889 70.6561C55.2223 70.6561 43.1663 71.6721 43.1663 80.4615ZM47.1663 80.4615C47.1663 76.6081 52.9263 74.6561 64.2889 74.6561C75.6489 74.6561 81.4063 76.6268 81.4063 80.5148C81.4063 84.3681 75.6489 86.3201 64.2889 86.3201C52.9263 86.3201 47.1663 84.3495 47.1663 80.4615Z" fill="#8B8B8B"/>
</svg>
