<svg width="25" height="26" viewBox="0 0 25 26" fill="none" xmlns="http://www.w3.org/2000/svg">
<path fill-rule="evenodd" clip-rule="evenodd" d="M23.2776 11.227H2.48291C1.99991 11.227 1.60791 10.835 1.60791 10.352C1.60791 9.86903 1.99991 9.47702 2.48291 9.47702H23.2776C23.7606 9.47702 24.1526 9.86903 24.1526 10.352C24.1526 10.835 23.7606 11.227 23.2776 11.227Z" fill="black"/>
<path fill-rule="evenodd" clip-rule="evenodd" d="M18.0681 15.7832C17.5851 15.7832 17.1884 15.3912 17.1884 14.9082C17.1884 14.4252 17.5746 14.0332 18.0576 14.0332H18.0681C18.5511 14.0332 18.9431 14.4252 18.9431 14.9082C18.9431 15.3912 18.5511 15.7832 18.0681 15.7832Z" fill="black"/>
<path fill-rule="evenodd" clip-rule="evenodd" d="M12.891 15.7832C12.408 15.7832 12.0113 15.3912 12.0113 14.9082C12.0113 14.4252 12.3975 14.0332 12.8805 14.0332H12.891C13.374 14.0332 13.766 14.4252 13.766 14.9082C13.766 15.3912 13.374 15.7832 12.891 15.7832Z" fill="black"/>
<path fill-rule="evenodd" clip-rule="evenodd" d="M7.70303 15.7832C7.22004 15.7832 6.8222 15.3912 6.8222 14.9082C6.8222 14.4252 7.20954 14.0332 7.69253 14.0332H7.70303C8.18603 14.0332 8.57803 14.4252 8.57803 14.9082C8.57803 15.3912 8.18603 15.7832 7.70303 15.7832Z" fill="black"/>
<path fill-rule="evenodd" clip-rule="evenodd" d="M18.0681 20.3177C17.5851 20.3177 17.1884 19.9257 17.1884 19.4427C17.1884 18.9597 17.5746 18.5677 18.0576 18.5677H18.0681C18.5511 18.5677 18.9431 18.9597 18.9431 19.4427C18.9431 19.9257 18.5511 20.3177 18.0681 20.3177Z" fill="black"/>
<path fill-rule="evenodd" clip-rule="evenodd" d="M12.891 20.3177C12.408 20.3177 12.0113 19.9257 12.0113 19.4427C12.0113 18.9597 12.3975 18.5677 12.8805 18.5677H12.891C13.374 18.5677 13.766 18.9597 13.766 19.4427C13.766 19.9257 13.374 20.3177 12.891 20.3177Z" fill="black"/>
<path fill-rule="evenodd" clip-rule="evenodd" d="M7.70303 20.3177C7.22004 20.3177 6.8222 19.9257 6.8222 19.4427C6.8222 18.9597 7.20954 18.5677 7.69253 18.5677H7.70303C8.18603 18.5677 8.57803 18.9597 8.57803 19.4427C8.57803 19.9257 8.18603 20.3177 7.70303 20.3177Z" fill="black"/>
<path fill-rule="evenodd" clip-rule="evenodd" d="M17.5924 6.42818C17.1094 6.42818 16.7174 6.03618 16.7174 5.55318V1.71368C16.7174 1.23068 17.1094 0.838684 17.5924 0.838684C18.0754 0.838684 18.4674 1.23068 18.4674 1.71368V5.55318C18.4674 6.03618 18.0754 6.42818 17.5924 6.42818Z" fill="black"/>
<path fill-rule="evenodd" clip-rule="evenodd" d="M8.16785 6.42818C7.68485 6.42818 7.29285 6.03618 7.29285 5.55318V1.71368C7.29285 1.23068 7.68485 0.838684 8.16785 0.838684C8.65085 0.838684 9.04285 1.23068 9.04285 1.71368V5.55318C9.04285 6.03618 8.65085 6.42818 8.16785 6.42818Z" fill="black"/>
<path fill-rule="evenodd" clip-rule="evenodd" d="M7.94117 4.43097C4.916 4.43097 3.25 6.04447 3.25 8.97397V19.5311C3.25 22.5248 4.916 24.1721 7.94117 24.1721H17.8088C20.834 24.1721 22.5 22.5551 22.5 19.6198V8.97397C22.5047 7.53314 22.1173 6.41314 21.3485 5.64314C20.5575 4.84981 19.3383 4.43097 17.8193 4.43097H7.94117ZM17.8088 25.9221H7.94117C3.96867 25.9221 1.5 23.4733 1.5 19.5311V8.97397C1.5 5.09131 3.96867 2.68097 7.94117 2.68097H17.8193C19.8132 2.68097 21.4617 3.2783 22.5875 4.40647C23.6807 5.50431 24.2558 7.08281 24.25 8.97631V19.6198C24.25 23.5071 21.7813 25.9221 17.8088 25.9221Z" fill="black"/>
</svg>
