<svg width="12" height="14" viewBox="0 0 12 14" fill="none" xmlns="http://www.w3.org/2000/svg">
<g id="&#208;&#188;&#208;&#181;&#209;&#128;&#208;&#190;&#208;&#191;&#209;&#128;&#208;&#184;&#209;&#143;&#209;&#130;&#208;&#184;&#209;&#143;">
<path fill-rule="evenodd" clip-rule="evenodd" d="M11.4871 5.4668H0.518457C0.263688 5.4668 0.0569196 5.26051 0.0569196 5.00634C0.0569196 4.75216 0.263688 4.54587 0.518457 4.54587H11.4871C11.7418 4.54587 11.9486 4.75216 11.9486 5.00634C11.9486 5.26051 11.7418 5.4668 11.4871 5.4668Z" fill="#7A7A7A"/>
<path fill-rule="evenodd" clip-rule="evenodd" d="M8.73921 7.86447C8.48444 7.86447 8.2752 7.65818 8.2752 7.40401C8.2752 7.14983 8.4789 6.94355 8.73367 6.94355H8.73921C8.99398 6.94355 9.20075 7.14983 9.20075 7.40401C9.20075 7.65818 8.99398 7.86447 8.73921 7.86447Z" fill="#7A7A7A"/>
<path fill-rule="evenodd" clip-rule="evenodd" d="M6.00843 7.86447C5.75366 7.86447 5.54441 7.65818 5.54441 7.40401C5.54441 7.14983 5.74812 6.94355 6.00289 6.94355H6.00843C6.2632 6.94355 6.46996 7.14983 6.46996 7.40401C6.46996 7.65818 6.2632 7.86447 6.00843 7.86447Z" fill="#7A7A7A"/>
<path fill-rule="evenodd" clip-rule="evenodd" d="M3.27193 7.86447C3.01716 7.86447 2.80731 7.65818 2.80731 7.40401C2.80731 7.14983 3.01162 6.94355 3.26639 6.94355H3.27193C3.52669 6.94355 3.73346 7.14983 3.73346 7.40401C3.73346 7.65818 3.52669 7.86447 3.27193 7.86447Z" fill="#7A7A7A"/>
<path fill-rule="evenodd" clip-rule="evenodd" d="M8.73921 10.2507C8.48444 10.2507 8.2752 10.0444 8.2752 9.79026C8.2752 9.53609 8.4789 9.3298 8.73367 9.3298H8.73921C8.99398 9.3298 9.20075 9.53609 9.20075 9.79026C9.20075 10.0444 8.99398 10.2507 8.73921 10.2507Z" fill="#7A7A7A"/>
<path fill-rule="evenodd" clip-rule="evenodd" d="M6.00843 10.2507C5.75366 10.2507 5.54441 10.0444 5.54441 9.79026C5.54441 9.53609 5.74812 9.3298 6.00289 9.3298H6.00843C6.2632 9.3298 6.46996 9.53609 6.46996 9.79026C6.46996 10.0444 6.2632 10.2507 6.00843 10.2507Z" fill="#7A7A7A"/>
<path fill-rule="evenodd" clip-rule="evenodd" d="M3.27193 10.2507C3.01716 10.2507 2.80731 10.0444 2.80731 9.79026C2.80731 9.53609 3.01162 9.3298 3.26639 9.3298H3.27193C3.52669 9.3298 3.73346 9.53609 3.73346 9.79026C3.73346 10.0444 3.52669 10.2507 3.27193 10.2507Z" fill="#7A7A7A"/>
<path fill-rule="evenodd" clip-rule="evenodd" d="M8.48829 2.94144C8.23352 2.94144 8.02675 2.73515 8.02675 2.48097V0.460463C8.02675 0.206288 8.23352 0 8.48829 0C8.74306 0 8.94983 0.206288 8.94983 0.460463V2.48097C8.94983 2.73515 8.74306 2.94144 8.48829 2.94144Z" fill="#7A7A7A"/>
<path fill-rule="evenodd" clip-rule="evenodd" d="M3.5171 2.94144C3.26233 2.94144 3.05556 2.73515 3.05556 2.48097V0.460463C3.05556 0.206288 3.26233 0 3.5171 0C3.77187 0 3.97864 0.206288 3.97864 0.460463V2.48097C3.97864 2.73515 3.77187 2.94144 3.5171 2.94144Z" fill="#7A7A7A"/>
<path fill-rule="evenodd" clip-rule="evenodd" d="M3.39753 1.89042C1.80184 1.89042 0.923076 2.73951 0.923076 4.28114V9.83678C0.923076 11.4122 1.80184 12.2791 3.39753 12.2791H8.60243C10.1981 12.2791 11.0769 11.4281 11.0769 9.88346V4.28114C11.0794 3.52291 10.875 2.93352 10.4695 2.52831C10.0523 2.11083 9.40919 1.89042 8.60796 1.89042H3.39753ZM8.60243 13.2H3.39753C1.30215 13.2 0 11.9113 0 9.83678V4.28114C0 2.23792 1.30215 0.969491 3.39753 0.969491H8.60796C9.65969 0.969491 10.5292 1.28383 11.1231 1.87752C11.6997 2.45525 12.003 3.28593 12 4.28237V9.88346C12 11.9291 10.6978 13.2 8.60243 13.2Z" fill="#7A7A7A"/>
</g>
</svg>
