<svg width="16" height="16" viewBox="0 0 16 16" fill="none" xmlns="http://www.w3.org/2000/svg">
<g id="&#208;&#164;&#208;&#184;&#208;&#187;&#209;&#140;&#209;&#130;&#209;&#128; &#208;&#184;&#208;&#186;&#208;&#190;&#208;&#189;&#208;&#186;&#208;&#176;">
<path id="Fill 1" fill-rule="evenodd" clip-rule="evenodd" d="M5.84895 7.7326C5.86095 7.74326 5.87228 7.75326 5.88362 7.76526C6.60295 8.5026 6.99964 9.47927 6.99964 10.5159V13.1719L8.4903 12.3599C8.60764 12.2959 8.6803 12.1706 8.6803 12.0326V10.5079C8.6803 9.47526 9.07297 8.50193 9.78564 7.7686L13.0103 4.33859C13.219 4.11659 13.3336 3.82525 13.3336 3.51792V2.89392C13.3336 2.58459 13.0896 2.33325 12.791 2.33325H2.87695C2.57762 2.33325 2.33362 2.58459 2.33362 2.89392V3.51792C2.33362 3.82525 2.44828 4.11659 2.65695 4.33792L5.84895 7.7326ZM6.7643 14.3339C6.62962 14.3339 6.49628 14.2979 6.37495 14.2259C6.14028 14.0859 5.99962 13.8386 5.99962 13.5639V10.5159C5.99962 9.75926 5.71762 9.0466 5.20362 8.5006C5.18828 8.48793 5.17295 8.47393 5.15962 8.45926L1.92895 5.02392C1.54495 4.61592 1.33362 4.08059 1.33362 3.51792V2.89392C1.33362 2.03325 2.02628 1.33325 2.87695 1.33325H12.791C13.641 1.33325 14.3336 2.03325 14.3336 2.89392V3.51792C14.3336 4.07992 14.1223 4.61459 13.7396 5.02325L10.5083 8.45926C9.97297 9.01126 9.6803 9.73726 9.6803 10.5079V12.0326C9.6803 12.5366 9.40764 12.9979 8.96897 13.2379L7.1283 14.2406C7.01364 14.3026 6.88897 14.3339 6.7643 14.3339Z" fill="black"/>
</g>
</svg>
