<svg width="16" height="16" viewBox="0 0 16 16" fill="none" xmlns="http://www.w3.org/2000/svg">
<g id="&#208;&#164;&#208;&#184;&#208;&#187;&#209;&#140;&#209;&#130;&#209;&#128; &#208;&#184;&#208;&#186;&#208;&#190;&#208;&#189;&#208;&#186;&#208;&#176;">
<g id="Union">
<path fill-rule="evenodd" clip-rule="evenodd" d="M4.94017 6.50079C4.94017 7.91266 6.08889 9.0606 7.50077 9.0606C8.91266 9.0606 10.0614 7.91266 10.0614 6.50079C10.0614 5.08812 8.91266 3.9394 7.50077 3.9394C6.08889 3.9394 4.94017 5.08812 4.94017 6.50079ZM6.12198 6.50079C6.12198 5.7397 6.74047 5.12122 7.50077 5.12122C8.26108 5.12122 8.87957 5.7397 8.87957 6.50079C8.87957 7.2611 8.26108 7.87878 7.50077 7.87878C6.74047 7.87878 6.12198 7.2611 6.12198 6.50079Z" fill="black"/>
<path fill-rule="evenodd" clip-rule="evenodd" d="M1 6.54964C1 10.9893 6.08655 15.3636 7.5 15.3636C8.91345 15.3636 14 10.9893 14 6.54964C14 2.938 11.0841 0 7.5 0C3.91594 0 1 2.938 1 6.54964ZM2.18182 6.54964C2.18182 3.59036 4.56752 1.18182 7.5 1.18182C10.4325 1.18182 12.8182 3.59036 12.8182 6.54964C12.8182 10.3141 8.38716 13.9825 7.5 14.1787C6.61285 13.9833 2.18182 10.3149 2.18182 6.54964Z" fill="black"/>
</g>
</g>
</svg>
