<svg width="16" height="16" viewBox="0 0 16 16" fill="none" xmlns="http://www.w3.org/2000/svg">
<g id="&#208;&#184;&#208;&#186;&#208;&#190;&#208;&#189;&#208;&#186;&#208;&#176; &#208;&#186;&#208;&#190;&#208;&#188;&#208;&#191;&#208;&#176;&#209;&#129;">
<path id="Union" fill-rule="evenodd" clip-rule="evenodd" d="M2.33313 8.24082C2.33313 4.98416 4.98313 2.3335 8.24049 2.3335C11.4978 2.3335 14.1478 4.98416 14.1478 8.24082C14.1478 11.4981 11.4978 14.1481 8.24049 14.1481C4.98313 14.1481 2.33313 11.4981 2.33313 8.24082ZM1.33313 8.24082C1.33313 12.0495 4.4318 15.1481 8.24049 15.1481C12.0492 15.1481 15.1478 12.0495 15.1478 8.24082C15.1478 4.43216 12.0492 1.3335 8.24049 1.3335C4.4318 1.3335 1.33313 4.43216 1.33313 8.24082ZM6.77616 9.70608L7.47416 7.47475L9.70549 6.77608L9.00683 9.00741L6.77616 9.70608ZM5.65951 10.8221C5.75485 10.9167 5.88285 10.9681 6.01351 10.9681C6.06285 10.9681 6.11351 10.9607 6.16285 10.9454L9.55549 9.88341C9.71149 9.83475 9.83483 9.71208 9.88349 9.55541L10.9448 6.16275C11.0008 5.98609 10.9528 5.79209 10.8215 5.66009C10.6895 5.52875 10.4962 5.48009 10.3182 5.53675L6.92549 6.59875C6.76949 6.64742 6.64685 6.76941 6.59818 6.92675L5.53618 10.3194C5.48018 10.4961 5.52818 10.6901 5.65951 10.8221Z" fill="black"/>
</g>
</svg>
