<svg width="65" height="64" viewBox="0 0 65 64" fill="none" xmlns="http://www.w3.org/2000/svg">
<g id="Frame">
<path id="Vector" fill-rule="evenodd" clip-rule="evenodd" d="M32.2036 33.6499H32.289C40.097 33.6499 46.4463 27.3006 46.4463 19.4926C46.4463 11.6846 40.097 5.33258 32.289 5.33258C24.4783 5.33258 18.1263 11.6846 18.1263 19.4846C18.0996 27.2712 24.4116 33.6259 32.2036 33.6499ZM21.9343 19.4926C21.9343 13.7832 26.5796 9.14058 32.289 9.14058C37.9956 9.14058 42.6383 13.7832 42.6383 19.4926C42.6383 25.1992 37.9956 29.8446 32.289 29.8446H32.2116C26.5263 29.8232 21.9156 25.1832 21.9343 19.4926Z" fill="#8B8B8B"/>
<path id="Vector_2" fill-rule="evenodd" clip-rule="evenodd" d="M11.1663 48.4615C11.1663 58.3201 27.0649 58.3201 32.2889 58.3201C41.3529 58.3201 53.4063 57.3041 53.4063 48.5148C53.4063 38.6561 37.5129 38.6561 32.2889 38.6561C23.2223 38.6561 11.1663 39.6721 11.1663 48.4615ZM15.1663 48.4615C15.1663 44.6081 20.9263 42.6561 32.2889 42.6561C43.6489 42.6561 49.4063 44.6268 49.4063 48.5148C49.4063 52.3681 43.6489 54.3201 32.2889 54.3201C20.9263 54.3201 15.1663 52.3495 15.1663 48.4615Z" fill="#8B8B8B"/>
</g>
</svg>
