<svg width="14" height="14" viewBox="0 0 14 14" fill="none" xmlns="http://www.w3.org/2000/svg">
<g id="Iconly/Regular/Outline/Location">
<g id="Location">
<path id="Fill 1" fill-rule="evenodd" clip-rule="evenodd" d="M7.1462 4.95801C6.58328 4.95801 6.12537 5.41592 6.12537 5.97942C6.12537 6.54234 6.58328 6.99967 7.1462 6.99967C7.70912 6.99967 8.16703 6.54234 8.16703 5.97942C8.16703 5.41592 7.70912 4.95801 7.1462 4.95801ZM7.1462 7.87467C6.10087 7.87467 5.25037 7.02476 5.25037 5.97942C5.25037 4.93351 6.10087 4.08301 7.1462 4.08301C8.19153 4.08301 9.04203 4.93351 9.04203 5.97942C9.04203 7.02476 8.19153 7.87467 7.1462 7.87467Z" fill="black"/>
<g id="Group 5">
<mask id="mask0_681_474" style="mask-type:luminance" maskUnits="userSpaceOnUse" x="2" y="1" width="10" height="12">
<path id="Clip 4" fill-rule="evenodd" clip-rule="evenodd" d="M2.33337 1.1665H11.9581V12.5415H2.33337V1.1665Z" fill="white"/>
</mask>
<g mask="url(#mask0_681_474)">
<path id="Fill 3" fill-rule="evenodd" clip-rule="evenodd" d="M7.14563 2.0415C4.97446 2.0415 3.20813 3.82475 3.20813 6.01575C3.20813 8.8035 6.4888 11.5195 7.14563 11.6642C7.80246 11.5189 11.0831 8.80292 11.0831 6.01575C11.0831 3.82475 9.3168 2.0415 7.14563 2.0415ZM7.14563 12.5415C6.09913 12.5415 2.33313 9.30284 2.33313 6.01575C2.33313 3.34175 4.49205 1.1665 7.14563 1.1665C9.79921 1.1665 11.9581 3.34175 11.9581 6.01575C11.9581 9.30284 8.19213 12.5415 7.14563 12.5415Z" fill="black"/>
</g>
</g>
</g>
</g>
</svg>
