<svg width="21" height="23" viewBox="0 0 21 23" fill="none" xmlns="http://www.w3.org/2000/svg">
<path fill-rule="evenodd" clip-rule="evenodd" d="M12.217 15.1299C13.421 15.1299 14.401 16.1029 14.401 17.2989V20.3749C14.401 20.6319 14.607 20.8379 14.871 20.8439H16.777C18.279 20.8439 19.5 19.6379 19.5 18.1559V9.43193C19.493 8.92193 19.25 8.44193 18.833 8.12293L12.24 2.86493C11.355 2.16393 10.117 2.16393 9.229 2.86693L2.681 8.12093C2.248 8.44993 2.005 8.92993 2 9.44893V18.1559C2 19.6379 3.221 20.8439 4.723 20.8439H6.647C6.918 20.8439 7.138 20.6289 7.138 20.3649C7.138 20.3069 7.145 20.2489 7.157 20.1939V17.2989C7.157 16.1099 8.131 15.1379 9.326 15.1299H12.217ZM16.777 22.3439H14.853C13.751 22.3179 12.901 21.4529 12.901 20.3749V17.2989C12.901 16.9299 12.594 16.6299 12.217 16.6299H9.331C8.962 16.6319 8.657 16.9329 8.657 17.2989V20.3649C8.657 20.4399 8.647 20.5119 8.626 20.5799C8.518 21.5699 7.672 22.3439 6.647 22.3439H4.723C2.394 22.3439 0.5 20.4649 0.5 18.1559V9.44193C0.51 8.44793 0.968 7.53793 1.759 6.93893L8.294 1.69393C9.733 0.553934 11.738 0.553934 13.174 1.69193L19.756 6.94193C20.529 7.53093 20.987 8.43893 21 9.42093V18.1559C21 20.4649 19.106 22.3439 16.777 22.3439Z" fill="#0BAFE2"/>
</svg>
