<svg width="49" height="49" viewBox="0 0 49 49" fill="none" xmlns="http://www.w3.org/2000/svg">
<g id="Frame 54">
<g id="media ico">
<circle id="Ellipse 10" cx="24.5" cy="24.5" r="24.5" fill="#6398FF"/>
<g id="Vector">
<mask id="path-2-outside-1_783_1795" maskUnits="userSpaceOnUse" x="12" y="14" width="25" height="21" fill="black">
<rect fill="white" x="12" y="14" width="25" height="21"/>
<path fill-rule="evenodd" clip-rule="evenodd" d="M19.5 16.382C19.7076 15.9667 20.0268 15.6175 20.4217 15.3734C20.8166 15.1293 21.2717 15 21.736 15H27.264C27.7283 15 28.1834 15.1293 28.5783 15.3734C28.9732 15.6175 29.2924 15.9667 29.5 16.382L30.394 18.171C30.5186 18.4202 30.7102 18.6297 30.9472 18.7761C31.1843 18.9226 31.4574 19.0001 31.736 19H33.5C34.163 19 34.7989 19.2634 35.2678 19.7322C35.7366 20.2011 36 20.837 36 21.5V31.5C36 32.163 35.7366 32.7989 35.2678 33.2678C34.7989 33.7366 34.163 34 33.5 34H15.5C14.837 34 14.2011 33.7366 13.7322 33.2678C13.2634 32.7989 13 32.163 13 31.5V21.5C13 20.837 13.2634 20.2011 13.7322 19.7322C14.2011 19.2634 14.837 19 15.5 19H17.264C17.5427 19 17.8159 18.9223 18.053 18.7757C18.29 18.6291 18.4815 18.4194 18.606 18.17L19.5 16.382ZM21.736 16C21.4573 16 21.1841 16.0777 20.947 16.2243C20.71 16.3709 20.5185 16.5806 20.394 16.83L19.5 18.617C19.2925 19.0324 18.9734 19.3819 18.5785 19.6262C18.1835 19.8704 17.7284 19.9999 17.264 20H15.5C15.1022 20 14.7206 20.158 14.4393 20.4393C14.158 20.7206 14 21.1022 14 21.5V31.5C14 31.8978 14.158 32.2794 14.4393 32.5607C14.7206 32.842 15.1022 33 15.5 33H33.5C33.8978 33 34.2794 32.842 34.5607 32.5607C34.842 32.2794 35 31.8978 35 31.5V21.5C35 21.1022 34.842 20.7206 34.5607 20.4393C34.2794 20.158 33.8978 20 33.5 20H31.736C31.2717 20 30.8166 19.8707 30.4217 19.6266C30.0268 19.3825 29.7076 19.0333 29.5 18.618L28.606 16.829C28.4814 16.5798 28.2898 16.3703 28.0528 16.2239C27.8157 16.0774 27.5426 15.9999 27.264 16H21.736Z"/>
<path fill-rule="evenodd" clip-rule="evenodd" d="M15 18.4999C15 18.1021 15.158 17.7205 15.4393 17.4392C15.7206 17.1579 16.1022 16.9999 16.5 16.9999H17.5C17.8978 16.9999 18.2794 17.1579 18.5607 17.4392C18.842 17.7205 19 18.1021 19 18.4999V18.9999C19 19.1325 18.9473 19.2597 18.8536 19.3535C18.7598 19.4472 18.6326 19.4999 18.5 19.4999C18.3674 19.4999 18.2402 19.4472 18.1464 19.3535C18.0527 19.2597 18 19.1325 18 18.9999V18.4999C18 18.3673 17.9473 18.2401 17.8536 18.1463C17.7598 18.0526 17.6326 17.9999 17.5 17.9999H16.5C16.3674 17.9999 16.2402 18.0526 16.1464 18.1463C16.0527 18.2401 16 18.3673 16 18.4999V19.4999C16 19.6325 15.9473 19.7597 15.8536 19.8535C15.7598 19.9472 15.6326 20 15.5 20C15.3674 20 15.2402 19.9472 15.1464 19.8535C15.0527 19.7597 15 19.6325 15 19.4999V18.4999ZM24.5 20.9999C23.3065 20.9999 22.1619 21.474 21.318 22.3179C20.4741 23.1618 20 24.3064 20 25.4999C20 26.6934 20.4741 27.838 21.318 28.6819C22.1619 29.5258 23.3065 29.9999 24.5 29.9999C25.6935 29.9999 26.8381 29.5258 27.682 28.6819C28.5259 27.838 29 26.6934 29 25.4999C29 24.3064 28.5259 23.1618 27.682 22.3179C26.8381 21.474 25.6935 20.9999 24.5 20.9999ZM19 25.4999C19 24.0412 19.5795 22.6423 20.6109 21.6108C21.6424 20.5794 23.0413 19.9999 24.5 19.9999C25.9587 19.9999 27.3576 20.5794 28.3891 21.6108C29.4205 22.6423 30 24.0412 30 25.4999C30 26.9586 29.4205 28.3575 28.3891 29.389C27.3576 30.4204 25.9587 30.9999 24.5 30.9999C23.0413 30.9999 21.6424 30.4204 20.6109 29.389C19.5795 28.3575 19 26.9586 19 25.4999Z"/>
<path fill-rule="evenodd" clip-rule="evenodd" d="M24.4999 24C24.1021 24 23.7206 24.1581 23.4393 24.4394C23.158 24.7207 22.9999 25.1022 22.9999 25.5C22.9999 25.8979 23.158 26.2794 23.4393 26.5607C23.7206 26.842 24.1021 27 24.4999 27C24.8978 27 25.2793 26.842 25.5606 26.5607C25.8419 26.2794 25.9999 25.8979 25.9999 25.5C25.9999 25.1022 25.8419 24.7207 25.5606 24.4394C25.2793 24.1581 24.8978 24 24.4999 24ZM21.9999 25.5C21.9999 24.837 22.2633 24.2011 22.7322 23.7323C23.201 23.2634 23.8369 23.0001 24.4999 23.0001C25.163 23.0001 25.7989 23.2634 26.2677 23.7323C26.7366 24.2011 26.9999 24.837 26.9999 25.5C26.9999 26.1631 26.7366 26.799 26.2677 27.2678C25.7989 27.7367 25.163 28.0001 24.4999 28.0001C23.8369 28.0001 23.201 27.7367 22.7322 27.2678C22.2633 26.799 21.9999 26.1631 21.9999 25.5ZM30.9999 22.5001C30.9999 22.3674 31.0526 22.2403 31.1464 22.1465C31.2402 22.0527 31.3673 22.0001 31.5 22.0001H33.4999C33.6326 22.0001 33.7597 22.0527 33.8535 22.1465C33.9473 22.2403 33.9999 22.3674 33.9999 22.5001C33.9999 22.6327 33.9473 22.7598 33.8535 22.8536C33.7597 22.9474 33.6326 23.0001 33.4999 23.0001H31.5C31.3673 23.0001 31.2402 22.9474 31.1464 22.8536C31.0526 22.7598 30.9999 22.6327 30.9999 22.5001Z"/>
</mask>
<path fill-rule="evenodd" clip-rule="evenodd" d="M19.5 16.382C19.7076 15.9667 20.0268 15.6175 20.4217 15.3734C20.8166 15.1293 21.2717 15 21.736 15H27.264C27.7283 15 28.1834 15.1293 28.5783 15.3734C28.9732 15.6175 29.2924 15.9667 29.5 16.382L30.394 18.171C30.5186 18.4202 30.7102 18.6297 30.9472 18.7761C31.1843 18.9226 31.4574 19.0001 31.736 19H33.5C34.163 19 34.7989 19.2634 35.2678 19.7322C35.7366 20.2011 36 20.837 36 21.5V31.5C36 32.163 35.7366 32.7989 35.2678 33.2678C34.7989 33.7366 34.163 34 33.5 34H15.5C14.837 34 14.2011 33.7366 13.7322 33.2678C13.2634 32.7989 13 32.163 13 31.5V21.5C13 20.837 13.2634 20.2011 13.7322 19.7322C14.2011 19.2634 14.837 19 15.5 19H17.264C17.5427 19 17.8159 18.9223 18.053 18.7757C18.29 18.6291 18.4815 18.4194 18.606 18.17L19.5 16.382ZM21.736 16C21.4573 16 21.1841 16.0777 20.947 16.2243C20.71 16.3709 20.5185 16.5806 20.394 16.83L19.5 18.617C19.2925 19.0324 18.9734 19.3819 18.5785 19.6262C18.1835 19.8704 17.7284 19.9999 17.264 20H15.5C15.1022 20 14.7206 20.158 14.4393 20.4393C14.158 20.7206 14 21.1022 14 21.5V31.5C14 31.8978 14.158 32.2794 14.4393 32.5607C14.7206 32.842 15.1022 33 15.5 33H33.5C33.8978 33 34.2794 32.842 34.5607 32.5607C34.842 32.2794 35 31.8978 35 31.5V21.5C35 21.1022 34.842 20.7206 34.5607 20.4393C34.2794 20.158 33.8978 20 33.5 20H31.736C31.2717 20 30.8166 19.8707 30.4217 19.6266C30.0268 19.3825 29.7076 19.0333 29.5 18.618L28.606 16.829C28.4814 16.5798 28.2898 16.3703 28.0528 16.2239C27.8157 16.0774 27.5426 15.9999 27.264 16H21.736Z" fill="white"/>
<path fill-rule="evenodd" clip-rule="evenodd" d="M15 18.4999C15 18.1021 15.158 17.7205 15.4393 17.4392C15.7206 17.1579 16.1022 16.9999 16.5 16.9999H17.5C17.8978 16.9999 18.2794 17.1579 18.5607 17.4392C18.842 17.7205 19 18.1021 19 18.4999V18.9999C19 19.1325 18.9473 19.2597 18.8536 19.3535C18.7598 19.4472 18.6326 19.4999 18.5 19.4999C18.3674 19.4999 18.2402 19.4472 18.1464 19.3535C18.0527 19.2597 18 19.1325 18 18.9999V18.4999C18 18.3673 17.9473 18.2401 17.8536 18.1463C17.7598 18.0526 17.6326 17.9999 17.5 17.9999H16.5C16.3674 17.9999 16.2402 18.0526 16.1464 18.1463C16.0527 18.2401 16 18.3673 16 18.4999V19.4999C16 19.6325 15.9473 19.7597 15.8536 19.8535C15.7598 19.9472 15.6326 20 15.5 20C15.3674 20 15.2402 19.9472 15.1464 19.8535C15.0527 19.7597 15 19.6325 15 19.4999V18.4999ZM24.5 20.9999C23.3065 20.9999 22.1619 21.474 21.318 22.3179C20.4741 23.1618 20 24.3064 20 25.4999C20 26.6934 20.4741 27.838 21.318 28.6819C22.1619 29.5258 23.3065 29.9999 24.5 29.9999C25.6935 29.9999 26.8381 29.5258 27.682 28.6819C28.5259 27.838 29 26.6934 29 25.4999C29 24.3064 28.5259 23.1618 27.682 22.3179C26.8381 21.474 25.6935 20.9999 24.5 20.9999ZM19 25.4999C19 24.0412 19.5795 22.6423 20.6109 21.6108C21.6424 20.5794 23.0413 19.9999 24.5 19.9999C25.9587 19.9999 27.3576 20.5794 28.3891 21.6108C29.4205 22.6423 30 24.0412 30 25.4999C30 26.9586 29.4205 28.3575 28.3891 29.389C27.3576 30.4204 25.9587 30.9999 24.5 30.9999C23.0413 30.9999 21.6424 30.4204 20.6109 29.389C19.5795 28.3575 19 26.9586 19 25.4999Z" fill="white"/>
<path fill-rule="evenodd" clip-rule="evenodd" d="M24.4999 24C24.1021 24 23.7206 24.1581 23.4393 24.4394C23.158 24.7207 22.9999 25.1022 22.9999 25.5C22.9999 25.8979 23.158 26.2794 23.4393 26.5607C23.7206 26.842 24.1021 27 24.4999 27C24.8978 27 25.2793 26.842 25.5606 26.5607C25.8419 26.2794 25.9999 25.8979 25.9999 25.5C25.9999 25.1022 25.8419 24.7207 25.5606 24.4394C25.2793 24.1581 24.8978 24 24.4999 24ZM21.9999 25.5C21.9999 24.837 22.2633 24.2011 22.7322 23.7323C23.201 23.2634 23.8369 23.0001 24.4999 23.0001C25.163 23.0001 25.7989 23.2634 26.2677 23.7323C26.7366 24.2011 26.9999 24.837 26.9999 25.5C26.9999 26.1631 26.7366 26.799 26.2677 27.2678C25.7989 27.7367 25.163 28.0001 24.4999 28.0001C23.8369 28.0001 23.201 27.7367 22.7322 27.2678C22.2633 26.799 21.9999 26.1631 21.9999 25.5ZM30.9999 22.5001C30.9999 22.3674 31.0526 22.2403 31.1464 22.1465C31.2402 22.0527 31.3673 22.0001 31.5 22.0001H33.4999C33.6326 22.0001 33.7597 22.0527 33.8535 22.1465C33.9473 22.2403 33.9999 22.3674 33.9999 22.5001C33.9999 22.6327 33.9473 22.7598 33.8535 22.8536C33.7597 22.9474 33.6326 23.0001 33.4999 23.0001H31.5C31.3673 23.0001 31.2402 22.9474 31.1464 22.8536C31.0526 22.7598 30.9999 22.6327 30.9999 22.5001Z" fill="white"/>
<path d="M19.5 16.382L19.7683 16.5162L19.7683 16.5162L19.5 16.382ZM21.736 15V14.7H21.736L21.736 15ZM27.264 15L27.264 14.7H27.264V15ZM29.5 16.382L29.7684 16.2479L29.7683 16.2478L29.5 16.382ZM30.394 18.171L30.1256 18.3051L30.1257 18.3052L30.394 18.171ZM31.736 19V18.7H31.7359L31.736 19ZM33.5 19V18.7V19ZM36 31.5H36.3H36ZM13 31.5H12.7H13ZM17.264 19V19.3H17.264L17.264 19ZM18.606 18.17L18.3377 18.0358L18.3376 18.036L18.606 18.17ZM21.736 16V15.7H21.736L21.736 16ZM20.394 16.83L20.6623 16.9642L20.6624 16.964L20.394 16.83ZM19.5 18.617L19.2317 18.4828L19.2316 18.483L19.5 18.617ZM17.264 20V20.3H17.2641L17.264 20ZM14 21.5H13.7H14ZM14 31.5H13.7H14ZM31.736 20L31.736 20.3H31.736V20ZM29.5 18.618L29.2316 18.7521L29.2317 18.7522L29.5 18.618ZM28.606 16.829L28.8744 16.6949L28.8743 16.6948L28.606 16.829ZM27.264 16V16.3L27.2641 16.3L27.264 16ZM16.5 16.9999V16.6999V16.9999ZM24.5 20.9999V20.6999V20.9999ZM20 25.4999H19.7H20ZM19 25.4999H18.7H19ZM30 25.4999H30.3H30ZM24.4999 24V23.7001V24ZM22.9999 25.5H22.6999H22.9999ZM24.4999 27V27.3V27ZM25.9999 25.5H26.2999H25.9999ZM21.9999 25.5H21.6999H21.9999ZM26.9999 25.5H26.6999H26.9999ZM19.7683 16.5162C19.951 16.1507 20.2319 15.8434 20.5794 15.6286L20.264 15.1182C19.8217 15.3916 19.4642 15.7827 19.2317 16.2478L19.7683 16.5162ZM20.5794 15.6286C20.927 15.4138 21.3275 15.3 21.736 15.3L21.736 14.7C21.216 14.7 20.7063 14.8448 20.264 15.1182L20.5794 15.6286ZM21.736 15.3H27.264V14.7H21.736V15.3ZM27.264 15.3C27.6725 15.3 28.073 15.4138 28.4206 15.6286L28.736 15.1182C28.2937 14.8448 27.784 14.7 27.264 14.7L27.264 15.3ZM28.4206 15.6286C28.7681 15.8434 29.049 16.1507 29.2317 16.5162L29.7683 16.2478C29.5358 15.7827 29.1783 15.3916 28.736 15.1182L28.4206 15.6286ZM29.2316 16.5161L30.1256 18.3051L30.6624 18.0369L29.7684 16.2479L29.2316 16.5161ZM30.1257 18.3052C30.2752 18.6042 30.5051 18.8557 30.7896 19.0314L31.1049 18.5209C30.9153 18.4038 30.762 18.2361 30.6623 18.0368L30.1257 18.3052ZM30.7896 19.0314C31.074 19.2071 31.4018 19.3001 31.7361 19.3L31.7359 18.7C31.513 18.7001 31.2945 18.6381 31.1049 18.5209L30.7896 19.0314ZM31.736 19.3H33.5V18.7H31.736V19.3ZM33.5 19.3C34.0835 19.3 34.6431 19.5318 35.0556 19.9444L35.4799 19.5201C34.9548 18.995 34.2426 18.7 33.5 18.7V19.3ZM35.0556 19.9444C35.4682 20.3569 35.7 20.9165 35.7 21.5H36.3C36.3 20.7574 36.005 20.0452 35.4799 19.5201L35.0556 19.9444ZM35.7 21.5V31.5H36.3V21.5H35.7ZM35.7 31.5C35.7 32.0835 35.4682 32.6431 35.0556 33.0556L35.4799 33.4799C36.005 32.9548 36.3 32.2426 36.3 31.5H35.7ZM35.0556 33.0556C34.6431 33.4682 34.0835 33.7 33.5 33.7V34.3C34.2426 34.3 34.9548 34.005 35.4799 33.4799L35.0556 33.0556ZM33.5 33.7H15.5V34.3H33.5V33.7ZM15.5 33.7C14.9165 33.7 14.3569 33.4682 13.9444 33.0556L13.5201 33.4799C14.0452 34.005 14.7574 34.3 15.5 34.3V33.7ZM13.9444 33.0556C13.5318 32.6431 13.3 32.0835 13.3 31.5H12.7C12.7 32.2426 12.995 32.9548 13.5201 33.4799L13.9444 33.0556ZM13.3 31.5V21.5H12.7V31.5H13.3ZM13.3 21.5C13.3 20.9165 13.5318 20.3569 13.9444 19.9444L13.5201 19.5201C12.995 20.0452 12.7 20.7574 12.7 21.5H13.3ZM13.9444 19.9444C14.3569 19.5318 14.9165 19.3 15.5 19.3V18.7C14.7574 18.7 14.0452 18.995 13.5201 19.5201L13.9444 19.9444ZM15.5 19.3H17.264V18.7H15.5V19.3ZM17.264 19.3C17.5985 19.3 17.9263 19.2068 18.2108 19.0309L17.8952 18.5206C17.7055 18.6379 17.487 18.7 17.264 18.7L17.264 19.3ZM18.2108 19.0309C18.4952 18.8549 18.725 18.6032 18.8744 18.304L18.3376 18.036C18.238 18.2355 18.0848 18.4033 17.8952 18.5206L18.2108 19.0309ZM18.8743 18.3042L19.7683 16.5162L19.2317 16.2478L18.3377 18.0358L18.8743 18.3042ZM21.736 15.7C21.4015 15.7 21.0737 15.7932 20.7892 15.9691L21.1048 16.4794C21.2945 16.3621 21.513 16.3 21.736 16.3L21.736 15.7ZM20.7892 15.9691C20.5048 16.1451 20.275 16.3968 20.1256 16.696L20.6624 16.964C20.762 16.7645 20.9152 16.5967 21.1048 16.4794L20.7892 15.9691ZM20.1257 16.6958L19.2317 18.4828L19.7683 18.7512L20.6623 16.9642L20.1257 16.6958ZM19.2316 18.483C19.049 18.8486 18.7682 19.1561 18.4207 19.371L18.7363 19.8813C19.1786 19.6077 19.536 19.2163 19.7684 18.751L19.2316 18.483ZM18.4207 19.371C18.0731 19.586 17.6726 19.6999 17.2639 19.7L17.2641 20.3C17.7842 20.2999 18.294 20.1549 18.7363 19.8813L18.4207 19.371ZM17.264 19.7H15.5V20.3H17.264V19.7ZM15.5 19.7C15.0226 19.7 14.5648 19.8896 14.2272 20.2272L14.6515 20.6515C14.8765 20.4264 15.1817 20.3 15.5 20.3V19.7ZM14.2272 20.2272C13.8896 20.5648 13.7 21.0226 13.7 21.5H14.3C14.3 21.1817 14.4264 20.8765 14.6515 20.6515L14.2272 20.2272ZM13.7 21.5V31.5H14.3V21.5H13.7ZM13.7 31.5C13.7 31.9774 13.8896 32.4352 14.2272 32.7728L14.6515 32.3485C14.4264 32.1235 14.3 31.8183 14.3 31.5H13.7ZM14.2272 32.7728C14.5648 33.1104 15.0226 33.3 15.5 33.3V32.7C15.1817 32.7 14.8765 32.5736 14.6515 32.3485L14.2272 32.7728ZM15.5 33.3H33.5V32.7H15.5V33.3ZM33.5 33.3C33.9774 33.3 34.4352 33.1104 34.7728 32.7728L34.3485 32.3485C34.1235 32.5736 33.8183 32.7 33.5 32.7V33.3ZM34.7728 32.7728C35.1104 32.4352 35.3 31.9774 35.3 31.5H34.7C34.7 31.8183 34.5736 32.1235 34.3485 32.3485L34.7728 32.7728ZM35.3 31.5V21.5H34.7V31.5H35.3ZM35.3 21.5C35.3 21.0226 35.1104 20.5648 34.7728 20.2272L34.3485 20.6515C34.5736 20.8765 34.7 21.1817 34.7 21.5H35.3ZM34.7728 20.2272C34.4352 19.8896 33.9774 19.7 33.5 19.7V20.3C33.8183 20.3 34.1235 20.4264 34.3485 20.6515L34.7728 20.2272ZM33.5 19.7H31.736V20.3H33.5V19.7ZM31.736 19.7C31.3275 19.7 30.927 19.5862 30.5794 19.3714L30.264 19.8818C30.7063 20.1552 31.216 20.3 31.736 20.3L31.736 19.7ZM30.5794 19.3714C30.2319 19.1566 29.951 18.8493 29.7683 18.4838L29.2317 18.7522C29.4642 19.2173 29.8217 19.6084 30.264 19.8818L30.5794 19.3714ZM29.7684 18.4839L28.8744 16.6949L28.3376 16.9631L29.2316 18.7521L29.7684 18.4839ZM28.8743 16.6948C28.7248 16.3958 28.4949 16.1443 28.2104 15.9686L27.8951 16.4791C28.0847 16.5962 28.238 16.7639 28.3377 16.9632L28.8743 16.6948ZM28.2104 15.9686C27.926 15.7929 27.5982 15.6999 27.2639 15.7L27.2641 16.3C27.487 16.2999 27.7055 16.3619 27.8951 16.4791L28.2104 15.9686ZM27.264 15.7H21.736V16.3H27.264V15.7ZM15.3 18.4999C15.3 18.1816 15.4264 17.8764 15.6515 17.6514L15.2272 17.2271C14.8896 17.5647 14.7 18.0225 14.7 18.4999H15.3ZM15.6515 17.6514C15.8765 17.4263 16.1817 17.2999 16.5 17.2999V16.6999C16.0226 16.6999 15.5648 16.8895 15.2272 17.2271L15.6515 17.6514ZM16.5 17.2999H17.5V16.6999H16.5V17.2999ZM17.5 17.2999C17.8183 17.2999 18.1235 17.4263 18.3485 17.6514L18.7728 17.2271C18.4352 16.8895 17.9774 16.6999 17.5 16.6999V17.2999ZM18.3485 17.6514C18.5736 17.8764 18.7 18.1816 18.7 18.4999H19.3C19.3 18.0225 19.1104 17.5647 18.7728 17.2271L18.3485 17.6514ZM18.7 18.4999V18.9999H19.3V18.4999H18.7ZM18.7 18.9999C18.7 19.0529 18.6789 19.1038 18.6414 19.1413L19.0657 19.5656C19.2157 19.4156 19.3 19.2121 19.3 18.9999H18.7ZM18.6414 19.1413C18.6039 19.1788 18.553 19.1999 18.5 19.1999V19.7999C18.7122 19.7999 18.9157 19.7156 19.0657 19.5656L18.6414 19.1413ZM18.5 19.1999C18.447 19.1999 18.3961 19.1788 18.3586 19.1413L17.9343 19.5656C18.0843 19.7156 18.2878 19.7999 18.5 19.7999V19.1999ZM18.3586 19.1413C18.3211 19.1038 18.3 19.0529 18.3 18.9999H17.7C17.7 19.2121 17.7843 19.4156 17.9343 19.5656L18.3586 19.1413ZM18.3 18.9999V18.4999H17.7V18.9999H18.3ZM18.3 18.4999C18.3 18.2877 18.2157 18.0842 18.0657 17.9342L17.6414 18.3585C17.6789 18.396 17.7 18.4469 17.7 18.4999H18.3ZM18.0657 17.9342C17.9157 17.7842 17.7122 17.6999 17.5 17.6999V18.2999C17.553 18.2999 17.6039 18.321 17.6414 18.3585L18.0657 17.9342ZM17.5 17.6999H16.5V18.2999H17.5V17.6999ZM16.5 17.6999C16.2878 17.6999 16.0843 17.7842 15.9343 17.9342L16.3586 18.3585C16.3961 18.321 16.447 18.2999 16.5 18.2999V17.6999ZM15.9343 17.9342C15.7843 18.0842 15.7 18.2877 15.7 18.4999H16.3C16.3 18.4469 16.3211 18.396 16.3586 18.3585L15.9343 17.9342ZM15.7 18.4999V19.4999H16.3V18.4999H15.7ZM15.7 19.4999C15.7 19.5529 15.6789 19.6038 15.6414 19.6413L16.0657 20.0656C16.2157 19.9156 16.3 19.7121 16.3 19.4999H15.7ZM15.6414 19.6413C15.6038 19.6789 15.5529 19.7 15.5 19.7V20.3C15.7123 20.3 15.9158 20.2155 16.0657 20.0656L15.6414 19.6413ZM15.5 19.7C15.4471 19.7 15.3962 19.6789 15.3586 19.6413L14.9343 20.0656C15.0842 20.2155 15.2877 20.3 15.5 20.3V19.7ZM15.3586 19.6413C15.3211 19.6038 15.3 19.5529 15.3 19.4999H14.7C14.7 19.7121 14.7843 19.9156 14.9343 20.0656L15.3586 19.6413ZM15.3 19.4999V18.4999H14.7V19.4999H15.3ZM24.5 20.6999C23.227 20.6999 22.0061 21.2056 21.1059 22.1058L21.5302 22.5301C22.3178 21.7424 23.3861 21.2999 24.5 21.2999V20.6999ZM21.1059 22.1058C20.2057 23.006 19.7 24.2269 19.7 25.4999H20.3C20.3 24.386 20.7425 23.3177 21.5302 22.5301L21.1059 22.1058ZM19.7 25.4999C19.7 26.7729 20.2057 27.9938 21.1059 28.894L21.5302 28.4698C20.7425 27.6821 20.3 26.6138 20.3 25.4999H19.7ZM21.1059 28.894C22.0061 29.7942 23.227 30.2999 24.5 30.2999V29.6999C23.3861 29.6999 22.3178 29.2574 21.5302 28.4698L21.1059 28.894ZM24.5 30.2999C25.773 30.2999 26.9939 29.7942 27.8941 28.894L27.4698 28.4698C26.6822 29.2574 25.6139 29.6999 24.5 29.6999V30.2999ZM27.8941 28.894C28.7943 27.9938 29.3 26.7729 29.3 25.4999H28.7C28.7 26.6138 28.2575 27.6821 27.4698 28.4698L27.8941 28.894ZM29.3 25.4999C29.3 24.2269 28.7943 23.006 27.8941 22.1058L27.4698 22.5301C28.2575 23.3177 28.7 24.386 28.7 25.4999H29.3ZM27.8941 22.1058C26.9939 21.2056 25.773 20.6999 24.5 20.6999V21.2999C25.6139 21.2999 26.6822 21.7424 27.4698 22.5301L27.8941 22.1058ZM19.3 25.4999C19.3 24.1208 19.8479 22.7981 20.823 21.8229L20.3988 21.3987C19.3111 22.4864 18.7 23.9616 18.7 25.4999H19.3ZM20.823 21.8229C21.7982 20.8478 23.1209 20.2999 24.5 20.2999V19.6999C22.9617 19.6999 21.4865 20.311 20.3988 21.3987L20.823 21.8229ZM24.5 20.2999C25.8791 20.2999 27.2018 20.8478 28.177 21.8229L28.6012 21.3987C27.5135 20.311 26.0383 19.6999 24.5 19.6999V20.2999ZM28.177 21.8229C29.1521 22.7981 29.7 24.1208 29.7 25.4999H30.3C30.3 23.9616 29.6889 22.4864 28.6012 21.3987L28.177 21.8229ZM29.7 25.4999C29.7 26.879 29.1521 28.2017 28.177 29.1769L28.6012 29.6011C29.6889 28.5134 30.3 27.0382 30.3 25.4999H29.7ZM28.177 29.1769C27.2018 30.152 25.8791 30.6999 24.5 30.6999V31.2999C26.0383 31.2999 27.5135 30.6888 28.6012 29.6011L28.177 29.1769ZM24.5 30.6999C23.1209 30.6999 21.7982 30.152 20.823 29.1769L20.3988 29.6011C21.4865 30.6888 22.9617 31.2999 24.5 31.2999V30.6999ZM20.823 29.1769C19.8479 28.2017 19.3 26.879 19.3 25.4999H18.7C18.7 27.0382 19.3111 28.5134 20.3988 29.6011L20.823 29.1769ZM24.4999 23.7001C24.0226 23.7001 23.5647 23.8897 23.2272 24.2273L23.6514 24.6515C23.8765 24.4265 24.1817 24.3 24.4999 24.3V23.7001ZM23.2272 24.2273C22.8896 24.5648 22.6999 25.0227 22.6999 25.5H23.2999C23.2999 25.1818 23.4264 24.8766 23.6514 24.6515L23.2272 24.2273ZM22.6999 25.5C22.6999 25.9774 22.8896 26.4353 23.2272 26.7728L23.6514 26.3486C23.4264 26.1235 23.2999 25.8183 23.2999 25.5H22.6999ZM23.2272 26.7728C23.5647 27.1104 24.0226 27.3 24.4999 27.3V26.7C24.1817 26.7 23.8765 26.5736 23.6514 26.3486L23.2272 26.7728ZM24.4999 27.3C24.9773 27.3 25.4352 27.1104 25.7727 26.7728L25.3485 26.3486C25.1234 26.5736 24.8182 26.7 24.4999 26.7V27.3ZM25.7727 26.7728C26.1103 26.4353 26.2999 25.9774 26.2999 25.5H25.6999C25.6999 25.8183 25.5735 26.1235 25.3485 26.3486L25.7727 26.7728ZM26.2999 25.5C26.2999 25.0227 26.1103 24.5648 25.7727 24.2273L25.3485 24.6515C25.5735 24.8766 25.6999 25.1818 25.6999 25.5H26.2999ZM25.7727 24.2273C25.4352 23.8897 24.9773 23.7001 24.4999 23.7001V24.3C24.8182 24.3 25.1234 24.4265 25.3485 24.6515L25.7727 24.2273ZM22.2999 25.5C22.2999 24.9166 22.5317 24.357 22.9443 23.9444L22.5201 23.5202C21.9949 24.0453 21.6999 24.7574 21.6999 25.5H22.2999ZM22.9443 23.9444C23.3569 23.5318 23.9165 23.3001 24.4999 23.3001V22.7001C23.7573 22.7001 23.0452 22.995 22.5201 23.5202L22.9443 23.9444ZM24.4999 23.3001C25.0834 23.3001 25.643 23.5318 26.0556 23.9444L26.4798 23.5202C25.9547 22.995 25.2426 22.7001 24.4999 22.7001V23.3001ZM26.0556 23.9444C26.4682 24.357 26.6999 24.9166 26.6999 25.5H27.2999C27.2999 24.7574 27.0049 24.0453 26.4798 23.5202L26.0556 23.9444ZM26.6999 25.5C26.6999 26.0835 26.4682 26.6431 26.0556 27.0557L26.4798 27.4799C27.0049 26.9548 27.2999 26.2427 27.2999 25.5H26.6999ZM26.0556 27.0557C25.643 27.4683 25.0834 27.7001 24.4999 27.7001V28.3001C25.2426 28.3001 25.9547 28.0051 26.4798 27.4799L26.0556 27.0557ZM24.4999 27.7001C23.9165 27.7001 23.3569 27.4683 22.9443 27.0557L22.5201 27.4799C23.0452 28.0051 23.7573 28.3001 24.4999 28.3001V27.7001ZM22.9443 27.0557C22.5317 26.6431 22.2999 26.0835 22.2999 25.5H21.6999C21.6999 26.2427 21.9949 26.9548 22.5201 27.4799L22.9443 27.0557ZM31.2999 22.5001C31.2999 22.447 31.321 22.3961 31.3585 22.3586L30.9343 21.9344C30.7842 22.0844 30.6999 22.2879 30.6999 22.5001H31.2999ZM31.3585 22.3586C31.396 22.3211 31.4469 22.3001 31.5 22.3001V21.7001C31.2878 21.7001 31.0843 21.7843 30.9343 21.9344L31.3585 22.3586ZM31.5 22.3001H33.4999V21.7001H31.5V22.3001ZM33.4999 22.3001C33.553 22.3001 33.6039 22.3211 33.6414 22.3586L34.0656 21.9344C33.9156 21.7843 33.7121 21.7001 33.4999 21.7001V22.3001ZM33.6414 22.3586C33.6789 22.3961 33.6999 22.447 33.6999 22.5001H34.2999C34.2999 22.2879 34.2157 22.0844 34.0656 21.9344L33.6414 22.3586ZM33.6999 22.5001C33.6999 22.5531 33.6789 22.604 33.6414 22.6415L34.0656 23.0657C34.2157 22.9157 34.2999 22.7122 34.2999 22.5001H33.6999ZM33.6414 22.6415C33.6039 22.679 33.553 22.7001 33.4999 22.7001V23.3001C33.7121 23.3001 33.9156 23.2158 34.0656 23.0657L33.6414 22.6415ZM33.4999 22.7001H31.5V23.3001H33.4999V22.7001ZM31.5 22.7001C31.4469 22.7001 31.396 22.679 31.3585 22.6415L30.9343 23.0657C31.0843 23.2158 31.2878 23.3001 31.5 23.3001V22.7001ZM31.3585 22.6415C31.321 22.604 31.2999 22.5531 31.2999 22.5001H30.6999C30.6999 22.7122 30.7842 22.9157 30.9343 23.0657L31.3585 22.6415Z" fill="white" mask="url(#path-2-outside-1_783_1795)"/>
</g>
</g>
</g>
</svg>
