<svg width="49" height="49" viewBox="0 0 49 49" fill="none" xmlns="http://www.w3.org/2000/svg">
<g id="Frame 52">
<g id="youth ico">
<circle id="Ellipse 11" cx="24.5" cy="24.5" r="24.5" fill="#B677F4"/>
<path id="Union" fill-rule="evenodd" clip-rule="evenodd" d="M19.5465 19.6646C19.5465 20.5122 19.7336 21.317 20.0688 22.0396C20.0305 22.0749 19.9954 22.115 19.9645 22.1596C19.3341 23.0685 18.2987 23.6111 17.1947 23.6111C15.3377 23.6111 13.8267 22.1007 13.8267 20.2441C13.8267 18.3866 15.3377 16.8761 17.1947 16.8761C18.0945 16.8761 18.9396 17.2265 19.5757 17.8621C19.6402 17.9266 19.7139 17.9763 19.7925 18.0112C19.6326 18.5345 19.5465 19.0897 19.5465 19.6646ZM19.7126 24.3364C20.1526 24.0658 20.5502 23.7238 20.8871 23.3199C21.3106 23.8199 21.819 24.2458 22.3898 24.575C21.9912 24.6955 21.6032 24.8409 21.2277 25.0093C20.7398 24.7317 20.2341 24.5072 19.7126 24.3364ZM12.3886 20.2441C12.3886 21.9471 13.2792 23.446 14.6194 24.2997C11.289 25.3181 9 28.3457 9 32.1251C9 32.5221 9.32213 32.8442 9.71905 32.8442H15.1459C15.2816 32.8442 15.4086 32.8065 15.5169 32.7411C15.4698 33.1292 15.4455 33.5242 15.4455 33.9248C15.4455 34.3217 15.7677 34.6438 16.1646 34.6438C16.5615 34.6438 16.8836 34.3217 16.8836 33.9248C16.8836 29.3334 20.6193 25.5978 25.2111 25.5978C29.8025 25.5978 33.5382 29.3334 33.5382 33.9248C33.5382 34.3217 33.8603 34.6438 34.2572 34.6438C34.6546 34.6438 34.9762 34.3217 34.9762 33.9248C34.9762 33.5596 34.9561 33.1991 34.9169 32.8442H38.2809C38.6779 32.8442 39 32.5221 39 32.1252C39 28.6421 36.8357 25.6332 33.7145 24.4405C34.8612 23.547 35.5845 22.1554 35.5845 20.631C35.5845 18.0103 33.2419 15.7957 30.4692 15.7957C30.1411 15.7957 29.8641 16.0158 29.7779 16.3167C28.746 14.9128 27.0831 14 25.2111 14C23.1871 14 21.4076 15.067 20.4056 16.6681C19.5225 15.8731 18.3918 15.438 17.1947 15.438C14.5443 15.438 12.3886 17.5937 12.3886 20.2441ZM30.3198 17.2182C30.676 17.9592 30.8757 18.789 30.8757 19.6646C30.8757 21.7614 29.7304 23.5958 28.0324 24.575C31.2525 25.5484 33.7754 28.1435 34.647 31.4061H37.5226C37.1799 28.2994 34.6531 25.7151 31.4884 25.3729C31.136 25.3345 30.8633 25.045 30.8475 24.6902C30.8312 24.3365 31.0756 24.023 31.4232 23.953C33.0012 23.6342 34.1464 22.2373 34.1464 20.631C34.1464 18.8219 32.4279 17.2337 30.4692 17.2337C30.418 17.2337 30.368 17.2284 30.3198 17.2182ZM15.7069 31.6755C16.2745 29.2769 17.7293 27.2175 19.7042 25.8642C18.8942 25.5353 18.0332 25.369 17.1348 25.369C13.5583 25.369 10.8058 27.9178 10.4721 31.4061H15.1459C15.3727 31.4061 15.5751 31.5113 15.7069 31.6755ZM25.2111 15.4381C22.8804 15.4381 20.9846 17.334 20.9846 19.6646C20.9846 21.9948 22.8804 23.8907 25.2111 23.8907C27.5418 23.8907 29.4376 21.9948 29.4376 19.6646C29.4376 17.334 27.5418 15.4381 25.2111 15.4381Z" fill="white"/>
</g>
</g>
</svg>
