<svg width="25" height="25" viewBox="0 0 25 25" fill="none" xmlns="http://www.w3.org/2000/svg">
<g clip-path="url(#clip0_488_859)">
<path fill-rule="evenodd" clip-rule="evenodd" d="M16.3105 2.58868L7.34 2.59335C4.624 2.60968 3 4.28968 3 7.08852V17.8172C3 20.6347 4.63917 22.317 7.382 22.317L16.3525 22.3135C19.0685 22.2972 20.6925 20.6149 20.6925 17.8172V7.08852C20.6925 4.27102 19.0545 2.58868 16.3105 2.58868ZM7.38317 24.067C3.71517 24.067 1.25 21.5552 1.25 17.8172V7.08852C1.25 3.31668 3.63817 0.865517 7.33417 0.843351L16.3105 0.838684C19.9785 0.838684 22.4425 3.35052 22.4425 7.08852V17.8172C22.4425 21.5879 20.0544 24.0402 16.3584 24.0635L7.38317 24.067Z" fill="black"/>
<path fill-rule="evenodd" clip-rule="evenodd" d="M16.0855 18.308H7.66211C7.17911 18.308 6.78711 17.916 6.78711 17.433C6.78711 16.95 7.17911 16.558 7.66211 16.558H16.0855C16.5685 16.558 16.9605 16.95 16.9605 17.433C16.9605 17.916 16.5685 18.308 16.0855 18.308Z" fill="black"/>
<path fill-rule="evenodd" clip-rule="evenodd" d="M16.0855 13.4238H7.66211C7.17911 13.4238 6.78711 13.0318 6.78711 12.5488C6.78711 12.0658 7.17911 11.6738 7.66211 11.6738H16.0855C16.5685 11.6738 16.9605 12.0658 16.9605 12.5488C16.9605 13.0318 16.5685 13.4238 16.0855 13.4238Z" fill="black"/>
<path fill-rule="evenodd" clip-rule="evenodd" d="M10.876 8.55084H7.6618C7.1788 8.55084 6.7868 8.15884 6.7868 7.67584C6.7868 7.19284 7.1788 6.80084 7.6618 6.80084H10.876C11.359 6.80084 11.751 7.19284 11.751 7.67584C11.751 8.15884 11.359 8.55084 10.876 8.55084Z" fill="black"/>
</g>
<defs>
<clipPath id="clip0_488_859">
<rect width="24" height="24" fill="white" transform="translate(0.25 0.838684)"/>
</clipPath>
</defs>
</svg>
