<svg width="49" height="49" viewBox="0 0 49 49" fill="none" xmlns="http://www.w3.org/2000/svg">
<circle cx="24.5" cy="24.5" r="24.5" fill="#FD2DAB"/>
<path d="M23.8166 16.8949H24.8239C24.833 16.8949 24.8414 16.893 24.8505 16.8927C24.8596 16.893 24.8677 16.8949 24.8772 16.8949H25.8851C26.1404 16.8949 26.3761 16.7678 26.5036 16.5613C26.7953 16.0898 27.4731 14.9255 27.4731 14.2942C27.4731 13.5011 26.7268 12.9498 25.5263 12.8082V11.6689C25.5263 11.2996 25.2063 11 24.8111 11C24.4162 11 24.0962 11.2993 24.0962 11.6689V12.8183C22.9425 12.9748 22.229 13.5187 22.229 14.2942C22.229 14.9255 22.9065 16.0898 23.1981 16.5613C23.3253 16.7675 23.5613 16.8949 23.8166 16.8949ZM24.8107 14.1081C24.8246 14.1081 24.837 14.1053 24.8505 14.1044C24.864 14.105 24.8765 14.1081 24.89 14.1081C25.5422 14.1081 25.9192 14.2513 26.0349 14.338C25.9877 14.5522 25.7513 15.0536 25.4639 15.5575H24.8772C24.8681 15.5575 24.8596 15.5597 24.8505 15.56C24.8414 15.56 24.833 15.5575 24.8239 15.5575H24.2375C23.9481 15.0501 23.7104 14.5458 23.6655 14.339C23.7802 14.2519 24.1575 14.1081 24.8107 14.1081Z" fill="white"/>
<path d="M35.239 31.4769V30.7156C35.239 30.346 34.919 30.0471 34.5244 30.0471C34.1289 30.0471 33.8088 30.346 33.8088 30.7156V31.4769C32.9263 31.7569 32.2883 32.5374 32.2883 33.4561C32.2883 33.5664 32.3001 33.674 32.318 33.7799L31.0355 33.5078L30.4842 32.7604C30.7361 32.5318 30.9711 32.1745 31.0261 31.6223C31.1357 30.5207 30.2383 29.7894 29.5838 29.2565C29.4233 29.1256 29.2047 28.9474 29.0753 28.8125C29.2327 28.8793 29.4469 28.9938 29.6175 29.0849C30.6258 29.6236 32.3129 30.5252 34.4911 29.4069C38.1037 27.5517 38.3904 21.7406 37.7017 18.2875C37.2691 16.1185 36.6203 15.7924 36.1704 15.736C35.9536 15.7092 35.4137 15.7211 35.0532 16.4174C34.5018 17.4811 33.1806 19.2456 31.7643 20.8078C29.8279 22.944 28.8439 23.5 28.6436 23.5331C28.5387 23.5347 28.4382 23.4092 28.3738 23.3026C27.9655 22.6271 28.0164 21.3121 28.3522 20.8233C28.5866 20.4824 28.8169 20.2796 28.9835 20.2664C29.1673 20.25 29.4762 20.4471 29.8074 20.7876C29.9551 20.9396 30.1675 21.0201 30.3901 21.0046C30.6096 20.9891 30.8093 20.88 30.9313 20.7088C31.4712 19.9516 31.6223 19.12 31.3562 18.3679C31.2369 18.0302 31.0386 17.7341 30.789 17.5073C30.9826 17.0081 31.0649 16.4625 30.7516 15.9895C30.4474 15.5307 29.8657 15.2979 29.022 15.2979C28.42 15.2979 27.8113 15.3531 27.4411 15.7533C27.0637 16.1604 27.1295 16.6577 27.2175 17.232C26.2038 17.724 25.4063 18.4474 24.8505 19.3679C24.2948 18.4471 23.4976 17.7236 22.4836 17.232C22.5719 16.6574 22.6377 16.1604 22.2603 15.7533C21.8894 15.3531 21.281 15.2979 20.6788 15.2979C19.8354 15.2979 19.2536 15.5307 18.9498 15.9895C18.6362 16.4625 18.7181 17.0084 18.912 17.5073C18.6625 17.7344 18.4642 18.0302 18.3448 18.3679C18.0788 19.12 18.2298 19.9516 18.7694 20.7088C18.8915 20.88 19.0914 20.9891 19.3106 21.0046C19.5329 21.0201 19.7457 20.9396 19.8937 20.7876C20.2248 20.4471 20.5331 20.25 20.7172 20.2664C20.8841 20.2796 21.1141 20.4824 21.3485 20.8233C21.6843 21.3121 21.7353 22.6271 21.3272 23.3026C21.2632 23.4085 21.1647 23.5344 21.074 23.5344L21.0723 23.5341C20.8568 23.5 19.8731 22.9443 17.9368 20.8078C16.5205 19.2456 15.1989 17.4811 14.6479 16.4174C14.2874 15.7211 13.7465 15.7085 13.5303 15.736C13.0801 15.7924 12.4316 16.1185 11.999 18.2875C11.3104 21.7406 11.597 27.5517 15.2097 29.4069C17.3875 30.5252 19.0746 29.6236 20.0829 29.0849C20.2542 28.9938 20.4683 28.8793 20.6255 28.8125C20.4963 28.9474 20.2775 29.1256 20.1173 29.2565C19.4624 29.7894 18.5654 30.5207 18.675 31.6223C18.7299 32.1745 18.9646 32.5321 19.2166 32.7604L18.6652 33.5078L17.1447 33.8304L13.2221 29.5113C13.3293 29.3224 13.3998 29.1152 13.4264 28.897C13.4817 28.4397 13.3435 27.9897 13.0369 27.6296C12.7908 27.3413 12.3409 27.2934 12.032 27.5233C11.7231 27.7532 11.6722 28.1742 11.918 28.4627C11.9865 28.5432 12.0175 28.6438 12.005 28.7459C11.9926 28.8481 11.9386 28.9392 11.8523 29.0033C11.7663 29.067 11.6587 29.0969 11.5498 29.0846C11.4405 29.073 11.3427 29.0222 11.2743 28.9421C11.0285 28.6529 10.5786 28.6056 10.2697 28.8358C9.96047 29.0657 9.90988 29.4864 10.1557 29.7752C10.5192 30.2019 11.0561 30.4242 11.5984 30.4242C11.771 30.4242 11.9437 30.4 12.1119 30.3546L15.589 34.1836C15.3041 34.3192 15.1412 34.621 15.2151 34.9256C15.2906 35.2362 15.5853 35.4463 15.9118 35.4463C15.964 35.4463 16.0173 35.4412 16.0706 35.4299L16.6159 35.3141L17.2519 36.0145C17.3932 36.1703 17.5945 36.2504 17.7972 36.2504C17.9607 36.2504 18.1253 36.1984 18.2599 36.0915C18.561 35.8524 18.5977 35.4302 18.3418 35.1486L18.189 34.9808L19.254 34.755C19.429 34.7178 19.5828 34.6207 19.6846 34.4822L20.5961 33.2464C21.2793 33.2637 21.8948 33.0653 21.9949 33.031C22.2502 32.9433 22.4306 32.7279 22.4596 32.4747C22.4741 32.3507 22.5787 32.0124 22.753 31.9096C22.8643 31.844 23.0464 31.8758 23.1992 31.9222C23.2079 32.0799 23.0727 32.4813 22.7699 32.8241C22.5746 33.0445 22.2961 33.2773 22.0013 33.5232C21.2197 34.1754 20.2464 34.9874 20.4123 36.1114C20.583 37.2681 21.8479 37.5746 22.8643 37.8203C23.3398 37.9354 24.136 38.1284 24.136 38.3315C24.136 38.701 24.456 39 24.8512 39C25.2464 39 25.5665 38.701 25.5665 38.3315C25.5665 38.128 26.3626 37.9354 26.8381 37.8203C27.8548 37.5746 29.1198 37.2681 29.2901 36.1117C29.4556 34.9874 28.4828 34.1754 27.7011 33.5232C27.4063 33.2773 27.1278 33.0445 26.9325 32.8241C26.6297 32.4807 26.4942 32.0789 26.5033 31.9219C26.6503 31.8768 26.8351 31.8433 26.9477 31.9086C27.1251 32.0117 27.2249 32.3438 27.2424 32.4747C27.2715 32.7279 27.4519 32.943 27.7071 33.031C27.8073 33.065 28.4231 33.2637 29.1063 33.2467L30.0175 34.4822C30.1196 34.6207 30.2727 34.7178 30.4481 34.755L33.6311 35.4302C33.6847 35.4415 33.7377 35.4466 33.7903 35.4466C33.8048 35.4466 33.8183 35.4441 33.8328 35.4437C34.0506 35.51 34.2833 35.5472 34.5251 35.5472C35.757 35.5472 36.7602 34.609 36.7602 33.4564C36.7592 32.5374 36.1215 31.7566 35.239 31.4769ZM27.7119 30.779C27.379 30.5819 26.8111 30.4034 25.9988 30.669C25.5604 30.8124 25.2522 31.1161 25.1304 31.5248C24.9207 32.2278 25.3304 33.112 25.8291 33.6759C26.0935 33.9751 26.4264 34.2527 26.7484 34.5213C27.3311 35.0079 27.9341 35.5109 27.8724 35.9291C27.8329 36.1981 27.0502 36.3873 26.479 36.5254C25.9526 36.6528 25.3247 36.8073 24.8505 37.1085C24.3764 36.8073 23.7485 36.6531 23.2224 36.5254C22.6512 36.3873 21.8685 36.1981 21.8287 35.9291C21.7673 35.5109 22.3699 35.0079 22.953 34.5213C23.275 34.2527 23.6075 33.9755 23.8719 33.6762C24.3703 33.112 24.7794 32.2278 24.57 31.5248C24.4486 31.1161 24.14 30.8124 23.702 30.669C22.8903 30.4031 22.3217 30.5819 21.9889 30.779C21.5107 31.0613 21.2696 31.5173 21.1495 31.8638C20.8163 31.9253 20.4363 31.9402 20.2535 31.831C20.2181 31.8105 20.1244 31.7544 20.0991 31.498C20.0603 31.1086 20.4717 30.7409 21.0568 30.2644C21.5913 29.8282 22.1447 29.3779 22.1521 28.7311C22.1561 28.3612 21.9784 28.0206 21.6236 27.7188C20.903 27.107 20.0552 27.5596 19.3737 27.9235C18.4366 28.4243 17.3736 28.9922 15.8983 28.2341C14.2509 27.3877 13.5924 25.341 13.3293 23.7731C12.9 21.208 13.2723 18.6596 13.6595 17.5307C14.371 18.7129 15.5975 20.3061 16.9319 21.7668C19.7339 24.8343 20.6983 24.8611 21.0153 24.8696C21.6506 24.8847 22.2074 24.564 22.5726 23.9598C23.2174 22.8933 23.2072 21.0528 22.5517 20.0992C22.0469 19.3651 21.4861 18.9838 20.8366 18.933C20.4393 18.9018 20.0481 18.9986 19.6549 19.2263C19.6354 19.0358 19.6678 18.8857 19.7028 18.7867C19.7838 18.5578 19.9375 18.4146 20.0465 18.378C20.2387 18.3137 20.3921 18.1752 20.4683 17.9983C20.5445 17.8211 20.5361 17.6221 20.4451 17.4512C20.1908 16.9722 20.1682 16.7681 20.1712 16.7006C20.2222 16.6786 20.3634 16.6341 20.6788 16.6341C20.8942 16.6341 21.0322 16.6445 21.1188 16.6555C21.109 16.7738 21.0834 16.9409 21.0615 17.0841C21.0399 17.2254 21.016 17.3802 20.9944 17.5505C20.9566 17.8482 21.1357 18.1336 21.4321 18.2478C22.8275 18.7854 23.7333 19.799 24.1242 21.2619C24.2081 21.5757 24.5174 21.7823 24.8509 21.7674C25.1844 21.7816 25.4926 21.5754 25.5766 21.2619C25.9677 19.7993 26.8732 18.7854 28.269 18.2478C28.5657 18.1336 28.7444 17.8482 28.7067 17.5505C28.6854 17.3805 28.6611 17.2254 28.6396 17.0841C28.6176 16.9406 28.5917 16.7738 28.5819 16.6555C28.6689 16.6442 28.8072 16.6341 29.022 16.6341C29.3376 16.6341 29.4789 16.6786 29.5298 16.7006C29.5329 16.7681 29.5103 16.9722 29.2557 17.4512C29.1646 17.6221 29.1565 17.8211 29.2327 17.9983C29.3093 18.1756 29.4627 18.3137 29.6553 18.378C29.7639 18.4146 29.9176 18.5578 29.9982 18.7867C30.0333 18.8854 30.0657 19.0355 30.0465 19.2263C29.6536 18.9983 29.2627 18.9021 28.8652 18.933C28.2153 18.9838 27.6542 19.3651 27.1497 20.0992C26.4938 21.0528 26.484 22.8933 27.1288 23.9598C27.494 24.5643 28.0504 24.8847 28.6854 24.8696C29.0028 24.8608 29.9675 24.834 32.7689 21.7668C34.1029 20.3061 35.3301 18.7126 36.0416 17.5307C36.4284 18.6596 36.801 21.2083 36.3717 23.7731C36.1094 25.341 35.4508 27.3877 33.8028 28.2341C32.3271 28.9916 31.2648 28.424 30.3274 27.9235C29.6458 27.5596 28.7981 27.1064 28.0777 27.7188C27.7223 28.0206 27.5449 28.3612 27.549 28.7311C27.5561 29.3782 28.1094 29.8282 28.6443 30.2644C29.2294 30.7409 29.6408 31.1086 29.6023 31.498C29.5767 31.7544 29.483 31.8102 29.4472 31.831C29.2648 31.9398 28.8844 31.9253 28.5515 31.8638C28.4315 31.5173 28.1904 31.0609 27.7119 30.779ZM34.5241 34.2094C34.0796 34.2094 33.7178 33.8714 33.7178 33.4561C33.7178 33.0407 34.0793 32.7027 34.5241 32.7027C34.9675 32.7027 35.3294 33.0407 35.3294 33.4561C35.3294 33.8714 34.9679 34.2094 34.5241 34.2094Z" fill="white"/>
</svg>
