<svg width="49" height="49" viewBox="0 0 49 49" fill="none" xmlns="http://www.w3.org/2000/svg">
<g id="Frame 56">
<g id="business ico">
<circle id="Ellipse 8" cx="24.5" cy="24.5" r="24.5" fill="#22BBFF"/>
<g id="Vector">
<path d="M24 26.7999C23.9261 26.7999 23.8527 26.788 23.7828 26.7648L13.4703 23.3898C13.2974 23.3331 13.1546 23.2113 13.0732 23.0512C12.9918 22.8911 12.9785 22.7058 13.0362 22.5361C13.094 22.3664 13.218 22.2262 13.3811 22.1463C13.5441 22.0663 13.7328 22.0533 13.9057 22.11L24 25.413L34.0953 22.1091C34.2654 22.0623 34.4474 22.0816 34.6035 22.1629C34.7596 22.2442 34.8779 22.3814 34.9339 22.5459C34.9898 22.7105 34.9792 22.8899 34.9041 23.047C34.8291 23.2041 34.6954 23.3268 34.5307 23.3898L24.2182 26.7648C24.1479 26.7879 24.0742 26.7998 24 26.7999Z" fill="white"/>
<path d="M32.4792 34H15.5208C14.8524 33.9995 14.2115 33.7386 13.7389 33.2746C13.2662 32.8105 13.0005 32.1813 13 31.525V21.175C13.0005 20.5187 13.2662 19.8895 13.7389 19.4254C14.2115 18.9614 14.8524 18.7005 15.5208 18.7H32.4792C33.1476 18.7005 33.7885 18.9614 34.2611 19.4254C34.7338 19.8895 34.9995 20.5187 35 21.175V31.525C34.9995 32.1813 34.7338 32.8105 34.2611 33.2746C33.7885 33.7386 33.1476 33.9995 32.4792 34ZM15.5208 20.05C14.8893 20.05 14.375 20.5549 14.375 21.175V31.525C14.375 32.1451 14.8893 32.65 15.5208 32.65H32.4792C33.1108 32.65 33.625 32.1451 33.625 31.525V21.175C33.625 20.5549 33.1108 20.05 32.4792 20.05H15.5208Z" fill="white"/>
<path d="M26.9791 20.05C26.7968 20.05 26.6219 19.9789 26.493 19.8523C26.3641 19.7257 26.2916 19.554 26.2916 19.375V17.575C26.2916 17.5153 26.2675 17.4581 26.2245 17.4159C26.1815 17.3737 26.1232 17.35 26.0625 17.35H21.9375C21.8767 17.35 21.8184 17.3737 21.7754 17.4159C21.7324 17.4581 21.7083 17.5153 21.7083 17.575V19.375C21.7083 19.554 21.6359 19.7257 21.5069 19.8523C21.378 19.9789 21.2031 20.05 21.0208 20.05C20.8385 20.05 20.6636 19.9789 20.5347 19.8523C20.4057 19.7257 20.3333 19.554 20.3333 19.375V17.575C20.3333 16.7065 21.0529 16 21.9375 16H26.0625C26.947 16 27.6666 16.7065 27.6666 17.575V19.375C27.6666 19.554 27.5942 19.7257 27.4653 19.8523C27.3363 19.9789 27.1615 20.05 26.9791 20.05Z" fill="white"/>
<path d="M24 26.7999C23.9261 26.7999 23.8527 26.788 23.7828 26.7648L13.4703 23.3898C13.2974 23.3331 13.1546 23.2113 13.0732 23.0512C12.9918 22.8911 12.9785 22.7058 13.0362 22.5361C13.094 22.3664 13.218 22.2262 13.3811 22.1463C13.5441 22.0663 13.7328 22.0533 13.9057 22.11L24 25.413L34.0953 22.1091C34.2654 22.0623 34.4474 22.0816 34.6035 22.1629C34.7596 22.2442 34.8779 22.3814 34.9339 22.5459C34.9898 22.7105 34.9792 22.8899 34.9041 23.047C34.8291 23.2041 34.6954 23.3268 34.5307 23.3898L24.2182 26.7648C24.1479 26.7879 24.0742 26.7998 24 26.7999Z" stroke="white" stroke-width="0.3"/>
<path d="M32.4792 34H15.5208C14.8524 33.9995 14.2115 33.7386 13.7389 33.2746C13.2662 32.8105 13.0005 32.1813 13 31.525V21.175C13.0005 20.5187 13.2662 19.8895 13.7389 19.4254C14.2115 18.9614 14.8524 18.7005 15.5208 18.7H32.4792C33.1476 18.7005 33.7885 18.9614 34.2611 19.4254C34.7338 19.8895 34.9995 20.5187 35 21.175V31.525C34.9995 32.1813 34.7338 32.8105 34.2611 33.2746C33.7885 33.7386 33.1476 33.9995 32.4792 34ZM15.5208 20.05C14.8893 20.05 14.375 20.5549 14.375 21.175V31.525C14.375 32.1451 14.8893 32.65 15.5208 32.65H32.4792C33.1108 32.65 33.625 32.1451 33.625 31.525V21.175C33.625 20.5549 33.1108 20.05 32.4792 20.05H15.5208Z" stroke="white" stroke-width="0.3"/>
<path d="M26.9791 20.05C26.7968 20.05 26.6219 19.9789 26.493 19.8523C26.3641 19.7257 26.2916 19.554 26.2916 19.375V17.575C26.2916 17.5153 26.2675 17.4581 26.2245 17.4159C26.1815 17.3737 26.1232 17.35 26.0625 17.35H21.9375C21.8767 17.35 21.8184 17.3737 21.7754 17.4159C21.7324 17.4581 21.7083 17.5153 21.7083 17.575V19.375C21.7083 19.554 21.6359 19.7257 21.5069 19.8523C21.378 19.9789 21.2031 20.05 21.0208 20.05C20.8385 20.05 20.6636 19.9789 20.5347 19.8523C20.4057 19.7257 20.3333 19.554 20.3333 19.375V17.575C20.3333 16.7065 21.0529 16 21.9375 16H26.0625C26.947 16 27.6666 16.7065 27.6666 17.575V19.375C27.6666 19.554 27.5942 19.7257 27.4653 19.8523C27.3363 19.9789 27.1615 20.05 26.9791 20.05Z" stroke="white" stroke-width="0.3"/>
</g>
</g>
</g>
</svg>
