<svg width="25" height="25" viewBox="0 0 25 25" fill="none" xmlns="http://www.w3.org/2000/svg">
<g clip-path="url(#clip0_488_867)">
<path fill-rule="evenodd" clip-rule="evenodd" d="M12.9539 13.2275H12.9912C16.4072 13.2275 19.1851 10.4497 19.1851 7.03368C19.1851 3.61768 16.4072 0.838684 12.9912 0.838684C9.57407 0.838684 6.79502 3.61768 6.79502 7.03018C6.78336 10.4369 9.54487 13.217 12.9539 13.2275ZM8.46102 7.03368C8.46102 4.53584 10.4934 2.50468 12.9912 2.50468C15.4879 2.50468 17.5191 4.53584 17.5191 7.03368C17.5191 9.53037 15.4879 11.5627 12.9912 11.5627H12.9574C10.4701 11.5534 8.45286 9.52337 8.46102 7.03368Z" fill="black"/>
<path fill-rule="evenodd" clip-rule="evenodd" d="M3.75 19.7076C3.75 24.0208 10.7057 24.0208 12.9912 24.0208C16.9567 24.0208 22.23 23.5763 22.23 19.7309C22.23 15.4178 15.2767 15.4178 12.9912 15.4178C9.0245 15.4178 3.75 15.8623 3.75 19.7076ZM5.5 19.7076C5.5 18.0218 8.02 17.1678 12.9912 17.1678C17.9612 17.1678 20.48 18.0299 20.48 19.7309C20.48 21.4168 17.9612 22.2708 12.9912 22.2708C8.02 22.2708 5.5 21.4086 5.5 19.7076Z" fill="black"/>
</g>
<defs>
<clipPath id="clip0_488_867">
<rect width="24" height="24" fill="white" transform="translate(0.75 0.838684)"/>
</clipPath>
</defs>
</svg>
