<svg width="24" height="24" viewBox="0 0 24 24" fill="none" xmlns="http://www.w3.org/2000/svg">
<g id="Search" opacity="0.9">
<path id="Search_2" d="M10.5343 17.0685C11.9533 17.0685 13.2618 16.6097 14.3324 15.8449L18.3601 19.8725C18.547 20.0595 18.7934 20.1529 19.0568 20.1529C19.6091 20.1529 20 19.7281 20 19.1843C20 18.9294 19.915 18.683 19.7281 18.5045L15.726 14.4939C16.5672 13.3893 17.0685 12.0212 17.0685 10.5343C17.0685 6.93999 14.1285 4 10.5343 4C6.94849 4 4 6.93149 4 10.5343C4 14.1285 6.93999 17.0685 10.5343 17.0685ZM10.5343 15.658C7.73022 15.658 5.41052 13.3383 5.41052 10.5343C5.41052 7.73022 7.73022 5.41051 10.5343 5.41051C13.3383 5.41051 15.658 7.73022 15.658 10.5343C15.658 13.3383 13.3383 15.658 10.5343 15.658Z" fill="#8B8B8B"/>
</g>
</svg>
