<svg width="12" height="11" viewBox="0 0 12 11" fill="none" xmlns="http://www.w3.org/2000/svg">
<path id="Vector" fill-rule="evenodd" clip-rule="evenodd" d="M6.00006 1.07561C5.94406 1.07561 5.80621 1.0902 5.73298 1.22914L4.60926 3.36048C4.43142 3.69731 4.08864 3.93141 3.69232 3.98511L1.17658 4.32895C1.01043 4.35172 0.953812 4.46847 0.936581 4.51751C0.921196 4.5648 0.89658 4.68505 1.01104 4.78896L2.83016 6.44687C3.12001 6.71132 3.2517 7.09252 3.18278 7.46555L2.75446 9.80646C2.728 9.95299 2.82462 10.0382 2.86769 10.0674C2.91323 10.1001 3.03508 10.1649 3.18585 10.0902L5.43512 8.98393C5.78959 8.81055 6.21175 8.81055 6.56499 8.98393L8.81365 10.0896C8.96504 10.1637 9.08688 10.0989 9.13304 10.0674C9.17612 10.0382 9.27273 9.95299 9.24627 9.80646L8.81672 7.46555C8.7478 7.09252 8.87949 6.71132 9.16935 6.44687L10.9885 4.78896C11.1035 4.68505 11.0789 4.56421 11.0629 4.51751C11.0463 4.46847 10.9897 4.35172 10.8235 4.32895L8.30779 3.98511C7.91209 3.93141 7.56932 3.69731 7.39147 3.3599L6.26653 1.22914C6.19391 1.0902 6.05606 1.07561 6.00006 1.07561ZM3.04431 10.9997C2.79015 10.9997 2.53784 10.9238 2.32184 10.7744C1.94891 10.5152 1.76614 10.0873 1.84552 9.65643L2.27384 7.31552C2.28984 7.22854 2.25845 7.14039 2.19076 7.07851L0.371647 5.4206C0.0368721 5.11646 -0.08313 4.66696 0.058411 4.24956C0.201183 3.82749 0.579036 3.52569 1.04489 3.46264L3.56063 3.1188C3.65786 3.10596 3.74156 3.04933 3.7834 2.96877L4.90773 0.836844C5.11512 0.443967 5.53359 0.199951 6.00006 0.199951C6.46653 0.199951 6.885 0.443967 7.09239 0.836844L8.21733 2.96819C8.25979 3.04933 8.34287 3.10596 8.43949 3.1188L10.9552 3.46264C11.4211 3.52569 11.7989 3.82749 11.9417 4.24956C12.0832 4.66696 11.9626 5.11646 11.6279 5.4206L9.80874 7.07851C9.74105 7.14039 9.71028 7.22854 9.72628 7.31493L10.1552 9.65643C10.234 10.0878 10.0512 10.5157 9.67766 10.7744C9.29919 11.0376 8.80626 11.0732 8.38841 10.8666L6.14037 9.76151C6.05237 9.71831 5.94713 9.71831 5.85913 9.76151L3.61109 10.8672C3.4314 10.9559 3.23755 10.9997 3.04431 10.9997Z" fill="black"/>
</svg>
