<svg width="60" height="60" viewBox="0 0 60 60" fill="none" xmlns="http://www.w3.org/2000/svg">
<g id="Group 42">
<g id="Rectangle 24" filter="url(#filter0_d_99_6763)">
<rect x="4" width="52" height="52" rx="10" fill="white"/>
</g>
<path id="Vector" d="M17.7177 24.4583C17.7177 24.4583 30.1088 19.1867 34.4063 17.3305C36.0537 16.588 41.6404 14.212 41.6404 14.212C41.6404 14.212 44.219 13.1726 44.0041 15.697C43.9324 16.7365 43.3594 20.3746 42.7865 24.3098C41.9269 29.8785 40.9958 35.9669 40.9958 35.9669C40.9958 35.9669 40.8526 37.6747 39.635 37.9716C38.4173 38.2686 36.4118 36.9322 36.0537 36.6351C35.7671 36.4124 30.6818 33.0712 28.8195 31.4377C28.3182 30.9922 27.7452 30.1013 28.8911 29.0618C31.4697 26.6116 34.5495 23.5674 36.4118 21.6369C37.2713 20.7459 38.1308 18.667 34.5495 21.1914C29.4642 24.8296 24.4504 28.2451 24.4504 28.2451C24.4504 28.2451 23.3044 28.9875 21.1557 28.3192C19.0068 27.6511 16.5 26.7601 16.5 26.7601C16.5 26.7601 14.7811 25.6463 17.7177 24.4583Z" fill="#34AADF"/>
</g>
<defs>
<filter id="filter0_d_99_6763" x="0" y="0" width="60" height="60" filterUnits="userSpaceOnUse" color-interpolation-filters="sRGB">
<feFlood flood-opacity="0" result="BackgroundImageFix"/>
<feColorMatrix in="SourceAlpha" type="matrix" values="0 0 0 0 0 0 0 0 0 0 0 0 0 0 0 0 0 0 127 0" result="hardAlpha"/>
<feOffset dy="4"/>
<feGaussianBlur stdDeviation="2"/>
<feComposite in2="hardAlpha" operator="out"/>
<feColorMatrix type="matrix" values="0 0 0 0 0 0 0 0 0 0 0 0 0 0 0 0 0 0 0.05 0"/>
<feBlend mode="normal" in2="BackgroundImageFix" result="effect1_dropShadow_99_6763"/>
<feBlend mode="normal" in="SourceGraphic" in2="effect1_dropShadow_99_6763" result="shape"/>
</filter>
</defs>
</svg>
