<svg width="12" height="13" viewBox="0 0 12 13" fill="none" xmlns="http://www.w3.org/2000/svg">
<g id="Vector">
<path fill-rule="evenodd" clip-rule="evenodd" d="M6 1.44199C3.1878 1.44199 0.9 3.75585 0.9 6.60008C0.9 9.44431 3.1878 11.7582 6 11.7582C8.8122 11.7582 11.1 9.44431 11.1 6.60008C11.1 3.75585 8.8122 1.44199 6 1.44199ZM6 12.6684C2.6916 12.6684 0 9.94616 0 6.60008C0 3.254 2.6916 0.531738 6 0.531738C9.3084 0.531738 12 3.254 12 6.60008C12 9.94616 9.3084 12.6684 6 12.6684Z" fill="#8B8B8B"/>
<path fill-rule="evenodd" clip-rule="evenodd" d="M8.05868 8.84075C7.98008 8.84075 7.90088 8.82011 7.82828 8.77703L5.56628 7.41226C5.43068 7.32974 5.34668 7.18106 5.34668 7.02086V4.07893C5.34668 3.82769 5.54828 3.6238 5.79668 3.6238C6.04568 3.6238 6.24668 3.82769 6.24668 4.07893V6.76234L8.28968 7.99421C8.50268 8.12348 8.57288 8.40262 8.44568 8.61865C8.36108 8.76125 8.21168 8.84075 8.05868 8.84075Z" fill="#8B8B8B"/>
</g>
</svg>
