<svg width="49" height="49" viewBox="0 0 49 49" fill="none" xmlns="http://www.w3.org/2000/svg">
<g id="Frame 53">
<g id="art ico">
<circle id="Ellipse 12" cx="24.5" cy="24.5" r="24.5" fill="#F341CD"/>
<path id="Vector" d="M35.7435 13.1756C35.8636 13.2782 35.9472 13.4169 35.982 13.571C36.0168 13.7252 36.0009 13.8864 35.9366 14.0308C33.6992 19.0535 29.0007 25.9944 25.5612 29.6114C24.5972 30.6232 23.4082 31.3928 22.0911 31.8577C22.0648 32.1901 22.0034 32.6455 21.8571 33.1287C21.5632 34.0937 20.8817 35.2945 19.3594 35.6767C17.8852 36.0282 16.3573 36.0938 14.8583 35.87C14.5796 35.8259 14.3048 35.7598 14.0365 35.6723C13.7883 35.5966 13.5569 35.4738 13.3551 35.3106C13.2219 35.1972 13.1194 35.0522 13.0567 34.8888C12.9791 34.6792 12.9812 34.4483 13.0626 34.2401C13.2015 33.8814 13.5247 33.6837 13.7367 33.5783C14.3129 33.2898 14.6507 32.9149 15.0046 32.3687C15.1435 32.1578 15.2737 31.9338 15.4243 31.6775L15.5954 31.3876C15.8162 31.0142 16.0721 30.5969 16.3938 30.1458C17.1659 29.0637 18.1501 28.7913 18.9471 28.8338C19.1313 28.844 19.3024 28.8704 19.456 28.9041C19.5466 28.6522 19.6636 28.3476 19.804 28.0138C20.1857 27.1073 20.7662 25.9359 21.5398 24.984C24.7219 21.0742 30.5771 15.8963 34.872 13.117C35.0042 13.0316 35.1604 12.9911 35.3175 13.0016C35.4745 13.0122 35.6239 13.0732 35.7435 13.1756ZM19.4823 30.4431C19.2882 30.3586 19.0808 30.309 18.8696 30.2967C18.5098 30.2776 18.0316 30.3699 17.5842 30.9981C17.2961 31.4008 17.065 31.7771 16.853 32.1359L16.6994 32.3951C16.5444 32.6601 16.388 32.9252 16.2315 33.1682C15.9353 33.6487 15.5595 34.0751 15.1201 34.429C16.1291 34.593 17.6587 34.5916 19.0056 34.2533C19.823 34.0498 20.2383 33.4201 20.4577 32.7011C20.5635 32.3439 20.6254 31.9751 20.6419 31.6029L19.4823 30.4431ZM21.5881 30.4812C21.7635 30.4226 21.9931 30.3347 22.2578 30.2132C23.1002 29.8218 23.8617 29.2754 24.5025 28.6024C27.281 25.6796 30.9544 20.446 33.3526 15.9637C29.5651 18.7855 25.2132 22.7875 22.6746 25.9095C22.0282 26.7046 21.512 27.7297 21.1508 28.5834C20.9739 29.0051 20.8379 29.3741 20.7487 29.6377L21.5881 30.4812ZM14.3158 34.9328L14.3261 34.9255C14.3229 34.9278 14.3195 34.9313 14.3158 34.9328Z" fill="white"/>
</g>
</g>
</svg>
