<svg width="14" height="14" viewBox="0 0 14 14" fill="none" xmlns="http://www.w3.org/2000/svg">
<g id="Frame 2">
<path id="path4" fill-rule="evenodd" clip-rule="evenodd" d="M12.7246 4.47399C12.8081 4.20077 12.7246 4 12.3276 4H11.0148C10.681 4 10.5271 4.17343 10.4437 4.36468C10.4437 4.36468 9.77607 5.96303 8.83032 7.00127C8.52434 7.3018 8.38525 7.39743 8.21834 7.39743C8.13491 7.39743 8.01411 7.3018 8.01411 7.0286V4.474C8.01411 4.14612 7.91724 4 7.63904 4H5.57607C5.36747 4 5.24202 4.15217 5.24202 4.29639C5.24202 4.60721 5.71487 4.67888 5.76361 5.55321V7.4521C5.76361 7.86842 5.68706 7.9439 5.52016 7.9439C5.07511 7.9439 3.99254 6.33841 3.35047 4.50131C3.22464 4.14424 3.09843 4 2.76291 4H1.45011C1.07502 4 1 4.17343 1 4.36468C1 4.70622 1.44507 6.4002 3.07232 8.6406C4.15714 10.1706 5.68559 11 7.07641 11C7.9109 11 8.01413 10.8158 8.01413 10.4985V9.34211C8.01413 8.97368 8.09319 8.90016 8.35744 8.90016C8.55215 8.90016 8.88595 8.99578 9.66482 9.73348C10.5549 10.6078 10.7017 11 11.2024 11H12.5152C12.8903 11 13.0778 10.8158 12.9696 10.4523C12.8512 10.0899 12.4262 9.56428 11.8623 8.94113C11.5563 8.58595 11.0974 8.20346 10.9583 8.01217C10.7636 7.7663 10.8192 7.65699 10.9583 7.43843C10.9583 7.43843 12.5577 5.22534 12.7246 4.47399Z" stroke="black"/>
</g>
</svg>
