<svg width="60" height="60" viewBox="0 0 60 60" fill="none" xmlns="http://www.w3.org/2000/svg">
<g id="Group 43">
<g id="Rectangle 25" filter="url(#filter0_d_99_6766)">
<rect x="4" width="52" height="52" rx="10" fill="white"/>
</g>
<g id="Group 40">
<path id="Vector" d="M30.25 12C24.0366 12 19 17.0366 19 23.25C19 26.3556 20.2583 29.1675 22.2934 31.2032C24.3291 33.24 29.125 36.1875 29.4062 39.2812C29.4484 39.7451 29.7843 40.125 30.25 40.125C30.7157 40.125 31.0516 39.7451 31.0938 39.2812C31.375 36.1875 36.1709 33.24 38.2066 31.2032C40.2417 29.1675 41.5 26.3556 41.5 23.25C41.5 17.0366 36.4634 12 30.25 12Z" fill="#FF4433"/>
<path id="Vector_2" d="M30.25 27.1877C32.4246 27.1877 34.1875 25.4249 34.1875 23.2502C34.1875 21.0756 32.4246 19.3127 30.25 19.3127C28.0754 19.3127 26.3125 21.0756 26.3125 23.2502C26.3125 25.4249 28.0754 27.1877 30.25 27.1877Z" fill="white"/>
</g>
</g>
<defs>
<filter id="filter0_d_99_6766" x="0" y="0" width="60" height="60" filterUnits="userSpaceOnUse" color-interpolation-filters="sRGB">
<feFlood flood-opacity="0" result="BackgroundImageFix"/>
<feColorMatrix in="SourceAlpha" type="matrix" values="0 0 0 0 0 0 0 0 0 0 0 0 0 0 0 0 0 0 127 0" result="hardAlpha"/>
<feOffset dy="4"/>
<feGaussianBlur stdDeviation="2"/>
<feComposite in2="hardAlpha" operator="out"/>
<feColorMatrix type="matrix" values="0 0 0 0 0 0 0 0 0 0 0 0 0 0 0 0 0 0 0.05 0"/>
<feBlend mode="normal" in2="BackgroundImageFix" result="effect1_dropShadow_99_6766"/>
<feBlend mode="normal" in="SourceGraphic" in2="effect1_dropShadow_99_6766" result="shape"/>
</filter>
</defs>
</svg>
